<svg width="21" height="21" viewBox="0 0 21 21" fill="none" xmlns="http://www.w3.org/2000/svg">
<path d="M10.5 21C4.70085 21 0 16.2991 0 10.5C0 4.70085 4.70085 0 10.5 0C16.2991 0 21 4.70085 21 10.5C21 16.2991 16.2991 21 10.5 21ZM10.5 18.9C12.7278 18.9 14.8644 18.015 16.4397 16.4397C18.015 14.8644 18.9 12.7278 18.9 10.5C18.9 8.27218 18.015 6.13561 16.4397 4.5603C14.8644 2.985 12.7278 2.1 10.5 2.1C8.27218 2.1 6.13561 2.985 4.5603 4.5603C2.985 6.13561 2.1 8.27218 2.1 10.5C2.1 12.7278 2.985 14.8644 4.5603 16.4397C6.13561 18.015 8.27218 18.9 10.5 18.9ZM9.45 13.65H11.55V15.75H9.45V13.65ZM11.55 11.9227V12.6H9.45V11.025C9.45 10.7465 9.56062 10.4795 9.75754 10.2825C9.95445 10.0856 10.2215 9.975 10.5 9.975C10.7983 9.97498 11.0904 9.89026 11.3424 9.73069C11.5945 9.57113 11.796 9.34328 11.9236 9.07366C12.0511 8.80404 12.0995 8.50373 12.0631 8.20768C12.0267 7.91163 11.907 7.63201 11.7178 7.40136C11.5287 7.1707 11.278 6.99849 10.9948 6.90477C10.7116 6.81104 10.4076 6.79966 10.1182 6.87194C9.82885 6.94422 9.56594 7.09719 9.36008 7.31306C9.15423 7.52892 9.01391 7.7988 8.95545 8.0913L6.89535 7.67865C7.02306 7.04034 7.31798 6.44739 7.74997 5.96042C8.18195 5.47344 8.73549 5.10991 9.35402 4.90699C9.97254 4.70406 10.6339 4.66902 11.2704 4.80545C11.9069 4.94187 12.4957 5.24487 12.9768 5.68347C13.4578 6.12206 13.8137 6.68053 14.0082 7.30177C14.2026 7.92301 14.2286 8.58474 14.0835 9.21932C13.9384 9.8539 13.6274 10.4386 13.1822 10.9136C12.7371 11.3885 12.1738 11.7368 11.55 11.9227Z" fill="white"/>
</svg>
