<svg width="43" height="22" viewBox="0 0 43 22" fill="none" xmlns="http://www.w3.org/2000/svg">
<rect x="1" y="2" width="41" height="18" rx="5" stroke="#33C400" stroke-width="2"/>
<path d="M11.5156 7.11523C13.8091 7.11523 15.2539 8.65674 15.2539 11.1274C15.2539 13.5928 13.8091 15.1343 11.5156 15.1343C9.2168 15.1343 7.77734 13.5928 7.77734 11.1274C7.77734 8.65674 9.2168 7.11523 11.5156 7.11523ZM11.5156 8.46875C10.248 8.46875 9.43164 9.5 9.43164 11.1274C9.43164 12.7495 10.2427 13.7754 11.5156 13.7754C12.7832 13.7754 13.5942 12.7495 13.5942 11.1274C13.5942 9.5 12.7832 8.46875 11.5156 8.46875ZM16.3013 7.24951H19.4541C21.0439 7.24951 22.1396 8.30762 22.1396 9.90283C22.1396 11.4927 21.0063 12.5562 19.3735 12.5562H17.9233V15H16.3013V7.24951ZM17.9233 8.5332V11.2886H19.019C19.9482 11.2886 20.4907 10.7944 20.4907 9.9082C20.4907 9.02734 19.9536 8.5332 19.0244 8.5332H17.9233ZM28.2358 13.6572V15H23.1011V7.24951H28.2358V8.58691H24.7231V10.4561H28.0371V11.7021H24.7231V13.6572H28.2358ZM30.959 15H29.4067V7.24951H30.7603L34.3804 12.2983H34.4233V7.24951H35.9756V15H34.6328L31.0073 9.92432H30.959V15Z" fill="#33C300"/>
</svg>
