<svg width="11" height="18" viewBox="0 0 11 18" fill="none" xmlns="http://www.w3.org/2000/svg">
<path d="M11 4.37216V5.67614C11 5.79545 10.9633 5.89347 10.8898 5.97017C10.8163 6.04688 10.7223 6.08523 10.608 6.08523H8.55011C8.36229 7.3125 7.83556 8.30966 6.96993 9.0767C6.10431 9.84375 4.97736 10.3125 3.58909 10.483C4.95286 12 6.82702 14.2841 9.21158 17.3352C9.32591 17.4716 9.34224 17.6165 9.26058 17.7699C9.19525 17.9233 9.07684 18 8.90534 18H6.5167C6.38604 18 6.28396 17.9489 6.21047 17.8466C3.71158 14.7187 1.67817 12.2855 0.110245 10.5469C0.0367483 10.4702 0 10.3764 0 10.2656V8.64205C0 8.53125 0.0387899 8.43537 0.11637 8.3544C0.19395 8.27344 0.28582 8.23295 0.391982 8.23295H1.76392C2.84187 8.23295 3.70954 8.04972 4.36693 7.68324C5.02431 7.31676 5.44284 6.78409 5.62249 6.08523H0.391982C0.277654 6.08523 0.183742 6.04688 0.110245 5.97017C0.0367483 5.89347 0 5.79545 0 5.67614V4.37216C0 4.25284 0.0367483 4.15483 0.110245 4.07812C0.183742 4.00142 0.277654 3.96307 0.391982 3.96307H5.451C4.98552 3 3.89124 2.51847 2.16815 2.51847H0.391982C0.28582 2.51847 0.19395 2.47798 0.11637 2.39702C0.0387899 2.31605 0 2.22017 0 2.10938V0.409091C0 0.289773 0.0367483 0.191761 0.110245 0.115057C0.183742 0.0383523 0.277654 0 0.391982 0H10.5835C10.6978 0 10.7918 0.0383523 10.8653 0.115057C10.9388 0.191761 10.9755 0.289773 10.9755 0.409091V1.71307C10.9755 1.83239 10.9388 1.9304 10.8653 2.0071C10.7918 2.08381 10.6978 2.12216 10.5835 2.12216H7.7294C8.11321 2.64205 8.37454 3.25568 8.51336 3.96307H10.608C10.7223 3.96307 10.8163 4.00142 10.8898 4.07812C10.9633 4.15483 11 4.25284 11 4.37216Z" fill="white"/>
</svg>
