<svg width="21" height="21" viewBox="0 0 21 21" fill="none" xmlns="http://www.w3.org/2000/svg">
<path fill-rule="evenodd" clip-rule="evenodd" d="M1.75 10.5131C1.75 5.90373 5.43375 1.75 10.5175 1.75C15.4875 1.75 19.25 5.82486 19.25 10.4869C19.25 15.8937 14.84 19.25 10.5 19.25C9.065 19.25 7.4725 18.8644 6.195 18.1108C5.74875 17.8391 5.3725 17.6376 4.89125 17.7953L3.12375 18.3211C2.6775 18.4613 2.275 18.1108 2.40625 17.6376L2.9925 15.6746C3.08875 15.403 3.07125 15.1138 2.93125 14.886C2.17875 13.5014 1.75 11.9854 1.75 10.5131ZM9.3625 10.5131C9.3625 11.1353 9.86125 11.6348 10.4825 11.6436C11.1038 11.6436 11.6025 11.1353 11.6025 10.5219C11.6025 9.89972 11.1038 9.40022 10.4825 9.40022C9.87 9.39146 9.3625 9.89972 9.3625 10.5131ZM13.3963 10.5219C13.3963 11.1353 13.895 11.6436 14.5163 11.6436C15.1375 11.6436 15.6363 11.1353 15.6363 10.5219C15.6363 9.89972 15.1375 9.40022 14.5163 9.40022C13.895 9.40022 13.3963 9.89972 13.3963 10.5219ZM6.44875 11.6436C5.83625 11.6436 5.32875 11.1353 5.32875 10.5219C5.32875 9.89972 5.8275 9.40022 6.44875 9.40022C7.07 9.40022 7.56875 9.89972 7.56875 10.5219C7.56875 11.1353 7.07 11.6348 6.44875 11.6436Z" fill="white"/>
</svg>
