<svg width="21" height="21" viewBox="0 0 21 21" fill="none" xmlns="http://www.w3.org/2000/svg">
<path fill-rule="evenodd" clip-rule="evenodd" d="M1.75 10.5001C1.75 5.67006 5.66125 1.75006 10.5 1.75006C15.33 1.75006 19.25 5.67006 19.25 10.5001C19.25 15.3388 15.33 19.2501 10.5 19.2501C5.66125 19.2501 1.75 15.3388 1.75 10.5001ZM12.4513 12.1013L13.8688 7.62131C13.965 7.31506 13.685 7.02631 13.3787 7.12256L8.89875 8.52256C8.715 8.58381 8.56625 8.72381 8.51375 8.90756L7.11375 13.3963C7.0175 13.6938 7.30625 13.9826 7.60375 13.8863L12.0662 12.4863C12.25 12.4338 12.3988 12.2851 12.4513 12.1013Z" fill="white"/>
</svg>
