<svg width="24" height="21" viewBox="0 0 24 21" fill="none" xmlns="http://www.w3.org/2000/svg">
<g id="Iconly/Bold/Work">
<g id="Work">
<path id="Work_2" fill-rule="evenodd" clip-rule="evenodd" d="M10.7044 3.07911C10.034 3.07911 9.46373 3.4867 9.30365 4.03606H14.6863C14.5263 3.4867 13.956 3.07911 13.2856 3.07911H10.7044ZM16.2071 4.03606H18.1881C20.2891 4.03606 22 5.55125 22 7.412C22 7.412 21.94 8.19971 21.92 9.29667C21.918 9.38351 21.8699 9.46857 21.7909 9.51996C21.3097 9.83097 20.8694 10.0879 20.8294 10.1057C19.1686 11.0803 17.2386 11.7662 15.1826 12.1073C15.0485 12.1303 14.9165 12.0692 14.8484 11.9646C14.2721 11.091 13.1956 10.5221 11.995 10.5221C10.8024 10.5221 9.71586 11.0848 9.12256 11.9593C9.05353 12.0621 8.92346 12.1215 8.7904 12.0993C6.75138 11.7573 4.82141 11.0724 3.17059 10.1145L2.21011 9.52971C2.13007 9.4854 2.08004 9.40566 2.08004 9.31705C2.05003 8.86515 2 7.412 2 7.412C2 5.55125 3.71086 4.03606 5.81191 4.03606H7.78289C7.97299 2.75126 9.2036 1.75 10.7044 1.75H13.2856C14.7864 1.75 16.017 2.75126 16.2071 4.03606ZM21.6598 11.2133L21.6198 11.2311C19.5988 12.4184 17.1676 13.207 14.6163 13.5348C14.2561 13.5791 13.8959 13.3753 13.7959 13.0564C13.5758 12.3298 12.8654 11.8513 12.015 11.8513H12.005H11.985C11.1346 11.8513 10.4242 12.3298 10.2041 13.0564C10.1041 13.3753 9.74387 13.5791 9.38369 13.5348C6.83242 13.207 4.4012 12.4184 2.38019 11.2311C2.37019 11.2222 2.27014 11.169 2.1901 11.2133C2.10005 11.2576 2.10005 11.364 2.10005 11.364L2.17009 15.8829C2.17009 17.7437 3.87094 19.25 5.97199 19.25H18.018C20.1191 19.25 21.8199 17.7437 21.8199 15.8829L21.9 11.364C21.9 11.364 21.9 11.2576 21.8099 11.2133C21.7599 11.1867 21.6999 11.1956 21.6598 11.2133ZM12.7454 14.926C12.7454 15.2981 12.4152 15.5905 11.995 15.5905C11.5848 15.5905 11.2446 15.2981 11.2446 14.926V13.7829C11.2446 13.4197 11.5848 13.1184 11.995 13.1184C12.4152 13.1184 12.7454 13.4197 12.7454 13.7829V14.926Z" fill="white"/>
</g>
</g>
</svg>
