<svg width="24" height="21" viewBox="0 0 24 21" fill="none" xmlns="http://www.w3.org/2000/svg">
<path d="M15.4907 4.97255C14.7689 4.97211 14.0503 5.06894 13.3544 5.26041C13.0797 4.81217 12.746 4.4029 12.3622 4.04359L13.365 2.61272C13.4285 2.52195 13.4736 2.41955 13.4976 2.31137C13.5215 2.20319 13.524 2.09135 13.5047 1.98222C13.4855 1.8731 13.445 1.76883 13.3854 1.67537C13.3259 1.58192 13.2485 1.50111 13.1578 1.43755C13.067 1.37399 12.9646 1.32893 12.8564 1.30495C12.7482 1.28096 12.6364 1.27852 12.5273 1.29776C12.4181 1.317 12.3139 1.35755 12.2204 1.41708C12.127 1.47662 12.0461 1.55398 11.9826 1.64474L10.9798 3.07456C10.1552 2.6582 9.24428 2.44149 8.32052 2.4419H8.13705L7.83232 0.72422C7.81632 0.612298 7.778 0.504733 7.71961 0.407916C7.66122 0.3111 7.58397 0.227009 7.49244 0.16064C7.40091 0.0942713 7.29697 0.0469788 7.1868 0.0215732C7.07664 -0.00383231 6.96249 -0.00683253 6.85114 0.012751C6.73979 0.0323345 6.63351 0.074102 6.53862 0.135572C6.44373 0.197041 6.36217 0.276958 6.29877 0.370574C6.23538 0.464189 6.19145 0.569593 6.1696 0.68052C6.14775 0.791448 6.14843 0.905636 6.17158 1.0163L6.47526 2.73925C5.53971 3.04868 4.69629 3.58692 4.02158 4.30509L2.58544 3.30021C2.49474 3.23509 2.39202 3.18862 2.28323 3.1635C2.17444 3.13838 2.06174 3.13511 1.95168 3.15387C1.84162 3.17264 1.73637 3.21307 1.64205 3.27281C1.54773 3.33256 1.4662 3.41044 1.40221 3.50193C1.33821 3.59342 1.29302 3.69671 1.26924 3.8058C1.24547 3.91489 1.24358 4.02762 1.26371 4.13745C1.28383 4.24727 1.32555 4.35201 1.38646 4.44558C1.44736 4.53916 1.52624 4.61972 1.61852 4.68258L3.04833 5.6864C2.6305 6.51085 2.41371 7.42247 2.41567 8.34675V8.52811L0.697994 8.83179C0.490087 8.86821 0.303388 8.98125 0.174753 9.1486C0.0461187 9.31595 -0.0151048 9.52544 0.00316898 9.73572C0.0214427 9.946 0.117886 10.1418 0.27346 10.2844C0.429033 10.4271 0.632433 10.5062 0.843506 10.5062C0.892631 10.5062 0.941663 10.5019 0.990073 10.4936L2.71091 10.1899C2.86211 10.6502 3.06965 11.0901 3.32881 11.4995C2.52195 12.249 1.95945 13.224 1.71458 14.2977C1.4697 15.3713 1.55379 16.4939 1.95591 17.5191C2.35802 18.5443 3.05951 19.4246 3.96904 20.0455C4.87856 20.6663 5.95396 20.999 7.0552 21H15.4907C17.6161 21 19.6544 20.1557 21.1573 18.6528C22.6601 17.15 23.5044 15.1116 23.5044 12.9863C23.5044 10.8609 22.6601 8.82258 21.1573 7.31972C19.6544 5.81685 17.6161 4.97255 15.4907 4.97255ZM4.10277 8.34675C4.10328 7.45349 4.38737 6.58345 4.9141 5.86202C5.44084 5.14059 6.18302 4.60501 7.03369 4.33248C7.88436 4.05995 8.79959 4.06453 9.64749 4.34556C10.4954 4.6266 11.2322 5.16957 11.7517 5.89624C10.0309 6.80179 8.69658 8.30019 7.99576 10.114C6.88685 9.92257 5.74591 10.076 4.727 10.5537C4.31906 9.88982 4.103 9.12593 4.10277 8.34675ZM15.4907 19.3129H7.0552C6.53602 19.3119 6.02255 19.2045 5.54655 18.9972C5.07055 18.7899 4.64213 18.4872 4.28779 18.1077C3.93344 17.7283 3.66071 17.2801 3.48644 16.7911C3.31217 16.302 3.24008 15.7824 3.27462 15.2644C3.30916 14.7464 3.4496 14.2409 3.68725 13.7793C3.9249 13.3177 4.25472 12.9098 4.6563 12.5807C5.05789 12.2517 5.52271 12.0085 6.02202 11.8662C6.52132 11.724 7.04451 11.6857 7.55922 11.7536C7.5202 12.0035 7.49279 12.2587 7.47803 12.516C7.47166 12.6268 7.48717 12.7377 7.52368 12.8425C7.56018 12.9473 7.61697 13.0438 7.6908 13.1267C7.76463 13.2095 7.85404 13.277 7.95395 13.3253C8.05386 13.3736 8.1623 13.4017 8.27307 13.408C8.38385 13.4144 8.4948 13.3989 8.59958 13.3624C8.70436 13.3259 8.80092 13.2691 8.88376 13.1953C8.96659 13.1214 9.03408 13.032 9.08235 12.9321C9.13063 12.8322 9.15876 12.7238 9.16513 12.613C9.18879 12.1923 9.25521 11.775 9.36336 11.3677C9.36336 11.3508 9.37285 11.334 9.37601 11.3171C9.68606 10.1777 10.3085 9.14772 11.173 8.3434C12.0375 7.53907 13.1097 6.99247 14.2684 6.7653C15.4272 6.53813 16.6263 6.63945 17.7306 7.05781C18.8348 7.47618 19.8 8.19493 20.5173 9.1329C21.2346 10.0709 21.6754 11.1907 21.7899 12.3659C21.9044 13.5412 21.688 14.725 21.1652 15.7838C20.6424 16.8426 19.834 17.7341 18.8313 18.3577C17.8286 18.9813 16.6715 19.3122 15.4907 19.3129Z" fill="white"/>
</svg>
