<svg width="24" height="24" viewBox="0 0 24 24" fill="none" xmlns="http://www.w3.org/2000/svg">
<path d="M7.6 23H16.4M4.3 19.7H19.7M1 16.4H23" stroke="white" stroke-width="1.5" stroke-linecap="round" stroke-linejoin="round"/>
<path d="M12.0008 5.3999C10.7305 5.39983 9.48726 5.76631 8.42016 6.45536C7.35306 7.14441 6.50747 8.12675 5.98487 9.2845C5.46226 10.4422 5.28485 11.7262 5.47391 12.9823C5.66298 14.2384 6.2105 15.4132 7.05076 16.3658H16.9508C17.791 15.4132 18.3385 14.2384 18.5276 12.9823C18.7167 11.7262 18.5393 10.4422 18.0166 9.2845C17.494 8.12675 16.6485 7.14441 15.5814 6.45536C14.5143 5.76631 13.271 5.39983 12.0008 5.3999Z" stroke="white" stroke-width="1.5"/>
<path d="M12 1V2.1M23 12H21.9M2.1 12H1M19.777 4.223L19.3458 4.6553M4.6542 4.6542L4.2219 4.2219" stroke="white" stroke-width="1.5" stroke-linecap="round"/>
</svg>
