<svg width="22" height="22" viewBox="0 0 22 22" fill="none" xmlns="http://www.w3.org/2000/svg">
<path d="M9.93548 2.48387V1.06452C9.93548 0.782189 10.0476 0.511425 10.2473 0.31179C10.4469 0.112154 10.7177 0 11 0C11.2823 0 11.5531 0.112154 11.7527 0.31179C11.9524 0.511425 12.0645 0.782189 12.0645 1.06452V2.48387C12.0645 2.7662 11.9524 3.03696 11.7527 3.2366C11.5531 3.43623 11.2823 3.54839 11 3.54839C10.7177 3.54839 10.4469 3.43623 10.2473 3.2366C10.0476 3.03696 9.93548 2.7662 9.93548 2.48387ZM17.0323 11C17.0323 12.1931 16.6785 13.3593 16.0156 14.3513C15.3528 15.3433 14.4107 16.1165 13.3084 16.5731C12.2062 17.0296 10.9933 17.1491 9.82316 16.9163C8.65302 16.6836 7.57818 16.1091 6.73455 15.2655C5.89092 14.4218 5.31641 13.347 5.08365 12.1768C4.85089 11.0067 4.97035 9.79381 5.42692 8.69155C5.88349 7.5893 6.65666 6.64719 7.64866 5.98436C8.64066 5.32153 9.80693 4.96774 11 4.96774C12.5993 4.96939 14.1327 5.60545 15.2636 6.73636C16.3945 7.86728 17.0306 9.40065 17.0323 11ZM14.9032 11C14.9032 10.228 14.6743 9.47337 14.2454 8.83148C13.8165 8.1896 13.2069 7.68932 12.4937 7.39389C11.7805 7.09846 10.9957 7.02117 10.2385 7.17177C9.48137 7.32238 8.78588 7.69413 8.24 8.24C7.69413 8.78588 7.32238 9.48137 7.17177 10.2385C7.02117 10.9957 7.09846 11.7805 7.39389 12.4937C7.68932 13.2069 8.1896 13.8165 8.83148 14.2454C9.47337 14.6743 10.228 14.9032 11 14.9032C12.0348 14.9021 13.027 14.4904 13.7587 13.7587C14.4904 13.027 14.9021 12.0348 14.9032 11ZM4.2146 5.72089C4.31362 5.81991 4.43117 5.89846 4.56055 5.95205C4.68993 6.00564 4.82859 6.03322 4.96863 6.03322C5.10867 6.03322 5.24733 6.00564 5.37671 5.95205C5.50609 5.89846 5.62364 5.81991 5.72266 5.72089C5.82168 5.62187 5.90023 5.50431 5.95382 5.37493C6.00741 5.24556 6.03499 5.10689 6.03499 4.96686C6.03499 4.82682 6.00741 4.68815 5.95382 4.55878C5.90023 4.4294 5.82168 4.31184 5.72266 4.21282L4.65814 3.14831C4.45816 2.94832 4.18693 2.83598 3.90411 2.83598C3.6213 2.83598 3.35006 2.94832 3.15008 3.14831C2.9501 3.34829 2.83775 3.61952 2.83775 3.90234C2.83775 4.18516 2.9501 4.45639 3.15008 4.65637L4.2146 5.72089ZM4.2146 16.2773L3.15008 17.3419C3.05106 17.4409 2.97251 17.5584 2.91892 17.6878C2.86533 17.8172 2.83775 17.9559 2.83775 18.0959C2.83775 18.2359 2.86533 18.3746 2.91892 18.504C2.97251 18.6333 3.05106 18.7509 3.15008 18.8499C3.35006 19.0499 3.6213 19.1622 3.90411 19.1622C4.04415 19.1622 4.18282 19.1347 4.31219 19.0811C4.44157 19.0275 4.55912 18.9489 4.65814 18.8499L5.72266 17.7854C5.92264 17.5854 6.03499 17.3142 6.03499 17.0314C6.03499 16.7486 5.92264 16.4773 5.72266 16.2773C5.52268 16.0774 5.25145 15.965 4.96863 15.965C4.68581 15.965 4.41458 16.0774 4.2146 16.2773ZM17.0323 6.03226C17.1721 6.03237 17.3106 6.00493 17.4398 5.9515C17.569 5.89807 17.6865 5.81971 17.7854 5.72089L18.8499 4.65637C18.9489 4.55735 19.0275 4.4398 19.0811 4.31042C19.1347 4.18104 19.1622 4.04238 19.1622 3.90234C19.1622 3.7623 19.1347 3.62364 19.0811 3.49426C19.0275 3.36488 18.9489 3.24733 18.8499 3.14831C18.7509 3.04929 18.6333 2.97074 18.504 2.91715C18.3746 2.86356 18.2359 2.83598 18.0959 2.83598C17.9559 2.83598 17.8172 2.86356 17.6878 2.91715C17.5584 2.97074 17.4409 3.04929 17.3419 3.14831L16.2773 4.21282C16.1276 4.36171 16.0255 4.55178 15.984 4.75886C15.9426 4.96594 15.9637 5.18066 16.0446 5.37572C16.1256 5.57077 16.2627 5.73735 16.4385 5.85426C16.6144 5.97117 16.8211 6.03313 17.0323 6.03226ZM17.7854 16.2791C17.5854 16.0791 17.3142 15.9668 17.0314 15.9668C16.7486 15.9668 16.4773 16.0791 16.2773 16.2791C16.0774 16.4791 15.965 16.7503 15.965 17.0331C15.965 17.316 16.0774 17.5872 16.2773 17.7872L17.3419 18.8517C17.5418 19.0517 17.8131 19.164 18.0959 19.164C18.3787 19.164 18.6499 19.0517 18.8499 18.8517C19.0499 18.6517 19.1622 18.3805 19.1622 18.0977C19.1622 17.8148 19.0499 17.5436 18.8499 17.3436L17.7854 16.2791ZM3.54839 11C3.54839 10.7177 3.43623 10.4469 3.2366 10.2473C3.03696 10.0476 2.7662 9.93548 2.48387 9.93548H1.06452C0.782189 9.93548 0.511425 10.0476 0.31179 10.2473C0.112154 10.4469 0 10.7177 0 11C0 11.2823 0.112154 11.5531 0.31179 11.7527C0.511425 11.9524 0.782189 12.0645 1.06452 12.0645H2.48387C2.7662 12.0645 3.03696 11.9524 3.2366 11.7527C3.43623 11.5531 3.54839 11.2823 3.54839 11ZM11 18.4516C10.7177 18.4516 10.4469 18.5638 10.2473 18.7634C10.0476 18.963 9.93548 19.2338 9.93548 19.5161V20.9355C9.93548 21.2178 10.0476 21.4886 10.2473 21.6882C10.4469 21.8878 10.7177 22 11 22C11.2823 22 11.5531 21.8878 11.7527 21.6882C11.9524 21.4886 12.0645 21.2178 12.0645 20.9355V19.5161C12.0645 19.2338 11.9524 18.963 11.7527 18.7634C11.5531 18.5638 11.2823 18.4516 11 18.4516ZM20.9355 9.93548H19.5161C19.2338 9.93548 18.963 10.0476 18.7634 10.2473C18.5638 10.4469 18.4516 10.7177 18.4516 11C18.4516 11.2823 18.5638 11.5531 18.7634 11.7527C18.963 11.9524 19.2338 12.0645 19.5161 12.0645H20.9355C21.2178 12.0645 21.4886 11.9524 21.6882 11.7527C21.8878 11.5531 22 11.2823 22 11C22 10.7177 21.8878 10.4469 21.6882 10.2473C21.4886 10.0476 21.2178 9.93548 20.9355 9.93548Z" fill="white"/>
</svg>
