<svg width="100" height="20" viewBox="0 0 100 20" fill="none" xmlns="http://www.w3.org/2000/svg">
<path fill-rule="evenodd" clip-rule="evenodd" d="M10.5953 2.86736L12.5253 6.74986C12.6219 6.94569 12.8086 7.08236 13.0253 7.11403L17.3461 7.73819C17.5211 7.76153 17.6786 7.85319 17.7861 7.99319C17.9878 8.25569 17.9569 8.62736 17.7153 8.85319L14.5836 11.8815C14.4244 12.0315 14.3536 12.2515 14.3953 12.4657L15.1453 16.739C15.1978 17.0932 14.9561 17.4249 14.6019 17.4824C14.4553 17.5049 14.3053 17.4815 14.1719 17.4157L10.3236 15.3982C10.1303 15.2932 9.8986 15.2932 9.70527 15.3982L5.8286 17.4265C5.50444 17.5915 5.10777 17.469 4.9311 17.1515C4.8636 17.0232 4.84027 16.8774 4.8636 16.7349L5.6136 12.4615C5.6511 12.2482 5.58027 12.029 5.42527 11.8782L2.27694 8.85069C2.02027 8.59569 2.0186 8.18069 2.27444 7.92403C2.27527 7.92319 2.2761 7.92153 2.27694 7.92069C2.38277 7.82486 2.51277 7.76069 2.6536 7.73569L6.97527 7.11153C7.1911 7.07736 7.37694 6.94236 7.47527 6.74653L9.4036 2.86736C9.4811 2.70986 9.6186 2.58903 9.78527 2.53403C9.95277 2.47819 10.1361 2.49153 10.2936 2.57069C10.4228 2.63486 10.5286 2.73903 10.5953 2.86736Z" fill="#FFCC17" stroke="#FFCC17" stroke-width="1.5" stroke-linecap="round" stroke-linejoin="round"/>
<path fill-rule="evenodd" clip-rule="evenodd" d="M50.5953 2.86736L52.5253 6.74986C52.6219 6.94569 52.8086 7.08236 53.0253 7.11403L57.3461 7.73819C57.5211 7.76153 57.6786 7.85319 57.7861 7.99319C57.9878 8.25569 57.9569 8.62736 57.7153 8.85319L54.5836 11.8815C54.4244 12.0315 54.3536 12.2515 54.3953 12.4657L55.1453 16.739C55.1978 17.0932 54.9561 17.4249 54.6019 17.4824C54.4553 17.5049 54.3053 17.4815 54.1719 17.4157L50.3236 15.3982C50.1303 15.2932 49.8986 15.2932 49.7053 15.3982L45.8286 17.4265C45.5044 17.5915 45.1078 17.469 44.9311 17.1515C44.8636 17.0232 44.8403 16.8774 44.8636 16.7349L45.6136 12.4615C45.6511 12.2482 45.5803 12.029 45.4253 11.8782L42.2769 8.85069C42.0203 8.59569 42.0186 8.18069 42.2744 7.92403C42.2753 7.92319 42.2761 7.92153 42.2769 7.92069C42.3828 7.82486 42.5128 7.76069 42.6536 7.73569L46.9753 7.11153C47.1911 7.07736 47.3769 6.94236 47.4753 6.74653L49.4036 2.86736C49.4811 2.70986 49.6186 2.58903 49.7853 2.53403C49.9528 2.47819 50.1361 2.49153 50.2936 2.57069C50.4228 2.63486 50.5286 2.73903 50.5953 2.86736Z" fill="#FFCC17" stroke="#FFCC17" stroke-width="1.5" stroke-linecap="round" stroke-linejoin="round"/>
<path fill-rule="evenodd" clip-rule="evenodd" d="M30.5953 2.86736L32.5253 6.74986C32.6219 6.94569 32.8086 7.08236 33.0253 7.11403L37.3461 7.73819C37.5211 7.76153 37.6786 7.85319 37.7861 7.99319C37.9878 8.25569 37.9569 8.62736 37.7153 8.85319L34.5836 11.8815C34.4244 12.0315 34.3536 12.2515 34.3953 12.4657L35.1453 16.739C35.1978 17.0932 34.9561 17.4249 34.6019 17.4824C34.4553 17.5049 34.3053 17.4815 34.1719 17.4157L30.3236 15.3982C30.1303 15.2932 29.8986 15.2932 29.7053 15.3982L25.8286 17.4265C25.5044 17.5915 25.1078 17.469 24.9311 17.1515C24.8636 17.0232 24.8403 16.8774 24.8636 16.7349L25.6136 12.4615C25.6511 12.2482 25.5803 12.029 25.4253 11.8782L22.2769 8.85069C22.0203 8.59569 22.0186 8.18069 22.2744 7.92403C22.2753 7.92319 22.2761 7.92153 22.2769 7.92069C22.3828 7.82486 22.5128 7.76069 22.6536 7.73569L26.9753 7.11153C27.1911 7.07736 27.3769 6.94236 27.4753 6.74653L29.4036 2.86736C29.4811 2.70986 29.6186 2.58903 29.7853 2.53403C29.9528 2.47819 30.1361 2.49153 30.2936 2.57069C30.4228 2.63486 30.5286 2.73903 30.5953 2.86736Z" fill="#FFCC17" stroke="#FFCC17" stroke-width="1.5" stroke-linecap="round" stroke-linejoin="round"/>
<path fill-rule="evenodd" clip-rule="evenodd" d="M70.5953 2.86736L72.5253 6.74986C72.6219 6.94569 72.8086 7.08236 73.0253 7.11403L77.3461 7.73819C77.5211 7.76153 77.6786 7.85319 77.7861 7.99319C77.9878 8.25569 77.9569 8.62736 77.7153 8.85319L74.5836 11.8815C74.4244 12.0315 74.3536 12.2515 74.3953 12.4657L75.1453 16.739C75.1978 17.0932 74.9561 17.4249 74.6019 17.4824C74.4553 17.5049 74.3053 17.4815 74.1719 17.4157L70.3236 15.3982C70.1303 15.2932 69.8986 15.2932 69.7053 15.3982L65.8286 17.4265C65.5044 17.5915 65.1078 17.469 64.9311 17.1515C64.8636 17.0232 64.8403 16.8774 64.8636 16.7349L65.6136 12.4615C65.6511 12.2482 65.5803 12.029 65.4253 11.8782L62.2769 8.85069C62.0203 8.59569 62.0186 8.18069 62.2744 7.92403C62.2753 7.92319 62.2761 7.92153 62.2769 7.92069C62.3828 7.82486 62.5128 7.76069 62.6536 7.73569L66.9753 7.11153C67.1911 7.07736 67.3769 6.94236 67.4753 6.74653L69.4036 2.86736C69.4811 2.70986 69.6186 2.58903 69.7853 2.53403C69.9528 2.47819 70.1361 2.49153 70.2936 2.57069C70.4228 2.63486 70.5286 2.73903 70.5953 2.86736Z" fill="#FFCC17" stroke="#FFCC17" stroke-width="1.5" stroke-linecap="round" stroke-linejoin="round"/>
<path fill-rule="evenodd" clip-rule="evenodd" d="M90.5953 2.86736L92.5253 6.74986C92.6219 6.94569 92.8086 7.08236 93.0253 7.11403L97.3461 7.73819C97.5211 7.76153 97.6786 7.85319 97.7861 7.99319C97.9878 8.25569 97.9569 8.62736 97.7153 8.85319L94.5836 11.8815C94.4244 12.0315 94.3536 12.2515 94.3953 12.4657L95.1453 16.739C95.1978 17.0932 94.9561 17.4249 94.6019 17.4824C94.4553 17.5049 94.3053 17.4815 94.1719 17.4157L90.3236 15.3982C90.1303 15.2932 89.8986 15.2932 89.7053 15.3982L85.8286 17.4265C85.5044 17.5915 85.1078 17.469 84.9311 17.1515C84.8636 17.0232 84.8403 16.8774 84.8636 16.7349L85.6136 12.4615C85.6511 12.2482 85.5803 12.029 85.4253 11.8782L82.2769 8.85069C82.0203 8.59569 82.0186 8.18069 82.2744 7.92403C82.2753 7.92319 82.2761 7.92153 82.2769 7.92069C82.3828 7.82486 82.5128 7.76069 82.6536 7.73569L86.9753 7.11153C87.1911 7.07736 87.3769 6.94236 87.4753 6.74653L89.4036 2.86736C89.4811 2.70986 89.6186 2.58903 89.7853 2.53403C89.9528 2.47819 90.1361 2.49153 90.2936 2.57069C90.4228 2.63486 90.5286 2.73903 90.5953 2.86736Z" stroke="white" stroke-width="1.5" stroke-linecap="round" stroke-linejoin="round"/>
</svg>
