<svg width="19" height="19" viewBox="0 0 19 19" fill="none" xmlns="http://www.w3.org/2000/svg">
<path d="M17.8006 7.3642C17.4808 7.03 17.15 6.68562 17.0254 6.38281C16.91 6.10545 16.9032 5.64571 16.8964 5.2004C16.8837 4.37254 16.8701 3.43442 16.2179 2.78214C15.5656 2.12987 14.6275 2.11629 13.7996 2.10357C13.3543 2.09679 12.8946 2.09 12.6172 1.97464C12.3152 1.84996 11.97 1.51915 11.6358 1.19937C11.0505 0.637009 10.3855 0 9.5 0C8.61446 0 7.95031 0.637009 7.3642 1.19937C7.03 1.51915 6.68562 1.84996 6.38281 1.97464C6.10714 2.09 5.64571 2.09679 5.2004 2.10357C4.37254 2.11629 3.43442 2.12987 2.78214 2.78214C2.12987 3.43442 2.12054 4.37254 2.10357 5.2004C2.09679 5.64571 2.09 6.10545 1.97464 6.38281C1.84996 6.68478 1.51915 7.03 1.19937 7.3642C0.637009 7.94946 0 8.61446 0 9.5C0 10.3855 0.637009 11.0497 1.19937 11.6358C1.51915 11.97 1.84996 12.3144 1.97464 12.6172C2.09 12.8946 2.09679 13.3543 2.10357 13.7996C2.11629 14.6275 2.12987 15.5656 2.78214 16.2179C3.43442 16.8701 4.37254 16.8837 5.2004 16.8964C5.64571 16.9032 6.10545 16.91 6.38281 17.0254C6.68478 17.15 7.03 17.4808 7.3642 17.8006C7.94946 18.363 8.61446 19 9.5 19C10.3855 19 11.0497 18.363 11.6358 17.8006C11.97 17.4808 12.3144 17.15 12.6172 17.0254C12.8946 16.91 13.3543 16.9032 13.7996 16.8964C14.6275 16.8837 15.5656 16.8701 16.2179 16.2179C16.8701 15.5656 16.8837 14.6275 16.8964 13.7996C16.9032 13.3543 16.91 12.8946 17.0254 12.6172C17.15 12.3152 17.4808 11.97 17.8006 11.6358C18.363 11.0505 19 10.3855 19 9.5C19 8.61446 18.363 7.95031 17.8006 7.3642ZM13.3729 7.94438L8.62295 12.6944C8.55993 12.7575 8.48509 12.8075 8.40271 12.8417C8.32033 12.8758 8.23203 12.8934 8.14286 12.8934C8.05368 12.8934 7.96538 12.8758 7.883 12.8417C7.80063 12.8075 7.72579 12.7575 7.66277 12.6944L5.62705 10.6587C5.49973 10.5313 5.42819 10.3586 5.42819 10.1786C5.42819 9.9985 5.49973 9.82581 5.62705 9.69848C5.75438 9.57115 5.92707 9.49962 6.10714 9.49962C6.28721 9.49962 6.4599 9.57115 6.58723 9.69848L8.14286 11.255L12.4128 6.9842C12.4758 6.92115 12.5507 6.87114 12.633 6.83702C12.7154 6.8029 12.8037 6.78534 12.8929 6.78534C12.982 6.78534 13.0703 6.8029 13.1527 6.83702C13.2351 6.87114 13.3099 6.92115 13.3729 6.9842C13.436 7.04724 13.486 7.12209 13.5201 7.20446C13.5542 7.28684 13.5718 7.37512 13.5718 7.46429C13.5718 7.55345 13.5542 7.64173 13.5201 7.72411C13.486 7.80648 13.436 7.88133 13.3729 7.94438Z" fill="#0A84FF"/>
</svg>
