<svg width="16" height="16" viewBox="0 0 16 16" fill="none" xmlns="http://www.w3.org/2000/svg">
<path fill-rule="evenodd" clip-rule="evenodd" d="M11.4 6.05194C11.4017 6.86391 11.1539 7.65468 10.6936 8.30626L7.8 12.3677L4.9064 8.30626C4.5676 7.82444 4.34223 7.26489 4.24879 6.67357C4.15535 6.08225 4.19651 5.47603 4.36889 4.90471C4.54127 4.33339 4.83995 3.81326 5.2404 3.38706C5.64085 2.96086 6.13163 2.64073 6.67245 2.45298C7.21327 2.26523 7.78869 2.21521 8.35144 2.30703C8.91419 2.39885 9.44822 2.6299 9.90966 2.98118C10.3711 3.33246 10.7468 3.79397 11.0059 4.32778C11.2649 4.8616 11.4 5.4525 11.4 6.05194ZM12.6 6.05194C12.6 7.18036 12.2488 8.2212 11.656 9.06162L8.5496 13.4204L7.8 14.473L7.0496 13.4204L3.944 9.06162C3.49175 8.41946 3.1907 7.6735 3.06559 6.88504C2.94048 6.09659 2.99488 5.28813 3.22431 4.52611C3.45375 3.76409 3.85168 3.07024 4.3854 2.50158C4.91912 1.93292 5.57341 1.50568 6.2945 1.25496C7.01559 1.00423 7.7829 0.937188 8.5334 1.05933C9.28389 1.18146 9.99614 1.4893 10.6116 1.95754C11.2271 2.42579 11.7283 3.04107 12.0739 3.75284C12.4196 4.46461 12.5999 5.25256 12.6 6.05194ZM7.8 7.73615C8.22435 7.73615 8.63131 7.55871 8.93137 7.24286C9.23143 6.92701 9.4 6.49862 9.4 6.05194C9.4 5.60526 9.23143 5.17687 8.93137 4.86102C8.63131 4.54517 8.22435 4.36773 7.8 4.36773C7.37565 4.36773 6.96869 4.54517 6.66863 4.86102C6.36857 5.17687 6.2 5.60526 6.2 6.05194C6.2 6.49862 6.36857 6.92701 6.66863 7.24286C6.96869 7.55871 7.37565 7.73615 7.8 7.73615Z" fill="#A1A1A1"/>
</svg>
