<svg width="67" height="19" viewBox="0 0 67 19" fill="none" xmlns="http://www.w3.org/2000/svg">
<path d="M53.3784 13.145C51.8315 13.145 50.6982 12.1997 50.6284 10.8462H51.7778C51.8638 11.6143 52.5244 12.1406 53.3892 12.1406C54.3667 12.1406 55.0435 11.4585 55.0435 10.4863C55.0435 9.51416 54.3667 8.81592 53.3999 8.81592C52.7285 8.81592 52.1484 9.12207 51.8477 9.63232H50.7466L51.1548 5.24951H55.7686V6.26465H52.1216L51.9067 8.64404H51.9336C52.272 8.15527 52.9058 7.85986 53.6631 7.85986C55.1509 7.85986 56.2197 8.9502 56.2197 10.4541C56.2197 12.0439 55.0488 13.145 53.3784 13.145ZM58.019 13.0591C57.627 13.0591 57.3154 12.7476 57.3154 12.3555C57.3154 11.9634 57.627 11.6519 58.019 11.6519C58.4111 11.6519 58.7227 11.9634 58.7227 12.3555C58.7227 12.7476 58.4111 13.0591 58.019 13.0591ZM62.8262 13.145C60.9678 13.145 59.8667 11.5874 59.8667 9.1167C59.8667 6.66211 60.9785 5.10449 62.8262 5.10449C64.6792 5.10449 65.7749 6.65674 65.7749 9.11133C65.7749 11.582 64.6846 13.145 62.8262 13.145ZM62.8262 12.1353C63.9326 12.1353 64.561 10.9912 64.561 9.1167C64.561 7.26904 63.9219 6.11426 62.8262 6.11426C61.7305 6.11426 61.0859 7.27441 61.0859 9.1167C61.0859 10.9858 61.7197 12.1353 62.8262 12.1353Z" fill="white"/>
<path fill-rule="evenodd" clip-rule="evenodd" d="M23.2974 5.43368L24.2624 7.37493C24.3107 7.47285 24.4041 7.54118 24.5124 7.55701L26.6728 7.8691C26.7603 7.88076 26.8391 7.9266 26.8928 7.9966C26.9936 8.12785 26.9782 8.31368 26.8574 8.4266L25.2916 9.94076C25.212 10.0158 25.1766 10.1258 25.1974 10.2328L25.5724 12.3695C25.5986 12.5466 25.4778 12.7124 25.3007 12.7412C25.2274 12.7524 25.1524 12.7408 25.0857 12.7078L23.1616 11.6991C23.0649 11.6466 22.9491 11.6466 22.8524 11.6991L20.9141 12.7133C20.752 12.7958 20.5536 12.7345 20.4653 12.5758C20.4316 12.5116 20.4199 12.4387 20.4316 12.3674L20.8066 10.2308C20.8253 10.1241 20.7899 10.0145 20.7124 9.9391L19.1382 8.42535C19.0099 8.29785 19.0091 8.09035 19.137 7.96201C19.1374 7.9616 19.1378 7.96076 19.1382 7.96035C19.1911 7.91243 19.2561 7.88035 19.3266 7.86785L21.4874 7.55576C21.5953 7.53868 21.6882 7.47118 21.7374 7.37326L22.7016 5.43368C22.7403 5.35493 22.8091 5.29451 22.8924 5.26701C22.9761 5.2391 23.0678 5.24576 23.1466 5.28535C23.2111 5.31743 23.2641 5.36951 23.2974 5.43368Z" fill="white"/>
<path fill-rule="evenodd" clip-rule="evenodd" d="M5.29739 5.43368L6.26239 7.37493C6.31072 7.47285 6.40406 7.54118 6.51239 7.55701L8.67281 7.8691C8.76031 7.88076 8.83906 7.9266 8.89281 7.9966C8.99364 8.12785 8.97822 8.31368 8.85739 8.4266L7.29156 9.94076C7.21197 10.0158 7.17656 10.1258 7.19739 10.2328L7.57239 12.3695C7.59864 12.5466 7.47781 12.7124 7.30072 12.7412C7.22739 12.7524 7.15239 12.7408 7.08572 12.7078L5.16156 11.6991C5.06489 11.6466 4.94906 11.6466 4.85239 11.6991L2.91406 12.7133C2.75197 12.7958 2.55364 12.7345 2.46531 12.5758C2.43156 12.5116 2.41989 12.4387 2.43156 12.3674L2.80656 10.2308C2.82531 10.1241 2.78989 10.0145 2.71239 9.9391L1.13822 8.42535C1.00989 8.29785 1.00906 8.09035 1.13697 7.96201C1.13739 7.9616 1.13781 7.96076 1.13822 7.96035C1.19114 7.91243 1.25614 7.88035 1.32656 7.86785L3.48739 7.55576C3.59531 7.53868 3.68822 7.47118 3.73739 7.37326L4.70156 5.43368C4.74031 5.35493 4.80906 5.29451 4.89239 5.26701C4.97614 5.2391 5.06781 5.24576 5.14656 5.28535C5.21114 5.31743 5.26406 5.36951 5.29739 5.43368Z" fill="white"/>
<path fill-rule="evenodd" clip-rule="evenodd" d="M32.2974 5.43368L33.2624 7.37493C33.3107 7.47285 33.4041 7.54118 33.5124 7.55701L35.6728 7.8691C35.7603 7.88076 35.8391 7.9266 35.8928 7.9966C35.9936 8.12785 35.9782 8.31368 35.8574 8.4266L34.2916 9.94076C34.212 10.0158 34.1766 10.1258 34.1974 10.2328L34.5724 12.3695C34.5986 12.5466 34.4778 12.7124 34.3007 12.7412C34.2274 12.7524 34.1524 12.7408 34.0857 12.7078L32.1616 11.6991C32.0649 11.6466 31.9491 11.6466 31.8524 11.6991L29.9141 12.7133C29.752 12.7958 29.5536 12.7345 29.4653 12.5758C29.4316 12.5116 29.4199 12.4387 29.4316 12.3674L29.8066 10.2308C29.8253 10.1241 29.7899 10.0145 29.7124 9.9391L28.1382 8.42535C28.0099 8.29785 28.0091 8.09035 28.137 7.96201C28.1374 7.9616 28.1378 7.96076 28.1382 7.96035C28.1911 7.91243 28.2561 7.88035 28.3266 7.86785L30.4874 7.55576C30.5953 7.53868 30.6882 7.47118 30.7374 7.37326L31.7016 5.43368C31.7403 5.35493 31.8091 5.29451 31.8924 5.26701C31.9761 5.2391 32.0678 5.24576 32.1466 5.28535C32.2111 5.31743 32.2641 5.36951 32.2974 5.43368Z" fill="white"/>
<path fill-rule="evenodd" clip-rule="evenodd" d="M41.2974 5.43368L42.2624 7.37493C42.3107 7.47285 42.4041 7.54118 42.5124 7.55701L44.6728 7.8691C44.7603 7.88076 44.8391 7.9266 44.8928 7.9966C44.9936 8.12785 44.9782 8.31368 44.8574 8.4266L43.2916 9.94076C43.212 10.0158 43.1766 10.1258 43.1974 10.2328L43.5724 12.3695C43.5986 12.5466 43.4778 12.7124 43.3007 12.7412C43.2274 12.7524 43.1524 12.7408 43.0857 12.7078L41.1616 11.6991C41.0649 11.6466 40.9491 11.6466 40.8524 11.6991L38.9141 12.7133C38.752 12.7958 38.5536 12.7345 38.4653 12.5758C38.4316 12.5116 38.4199 12.4387 38.4316 12.3674L38.8066 10.2308C38.8253 10.1241 38.7899 10.0145 38.7124 9.9391L37.1382 8.42535C37.0099 8.29785 37.0091 8.09035 37.137 7.96201C37.1374 7.9616 37.1378 7.96076 37.1382 7.96035C37.1911 7.91243 37.2561 7.88035 37.3266 7.86785L39.4874 7.55576C39.5953 7.53868 39.6882 7.47118 39.7374 7.37326L40.7016 5.43368C40.7403 5.35493 40.8091 5.29451 40.8924 5.26701C40.9761 5.2391 41.0678 5.24576 41.1466 5.28535C41.2111 5.31743 41.2641 5.36951 41.2974 5.43368Z" fill="white"/>
<path fill-rule="evenodd" clip-rule="evenodd" d="M14.2974 5.43368L15.2624 7.37493C15.3107 7.47285 15.4041 7.54118 15.5124 7.55701L17.6728 7.8691C17.7603 7.88076 17.8391 7.9266 17.8928 7.9966C17.9936 8.12785 17.9782 8.31368 17.8574 8.4266L16.2916 9.94076C16.212 10.0158 16.1766 10.1258 16.1974 10.2328L16.5724 12.3695C16.5986 12.5466 16.4778 12.7124 16.3007 12.7412C16.2274 12.7524 16.1524 12.7408 16.0857 12.7078L14.1616 11.6991C14.0649 11.6466 13.9491 11.6466 13.8524 11.6991L11.9141 12.7133C11.752 12.7958 11.5536 12.7345 11.4653 12.5758C11.4316 12.5116 11.4199 12.4387 11.4316 12.3674L11.8066 10.2308C11.8253 10.1241 11.7899 10.0145 11.7124 9.9391L10.1382 8.42535C10.0099 8.29785 10.0091 8.09035 10.137 7.96201C10.1374 7.9616 10.1378 7.96076 10.1382 7.96035C10.1911 7.91243 10.2561 7.88035 10.3266 7.86785L12.4874 7.55576C12.5953 7.53868 12.6882 7.47118 12.7374 7.37326L13.7016 5.43368C13.7403 5.35493 13.8091 5.29451 13.8924 5.26701C13.9761 5.2391 14.0678 5.24576 14.1466 5.28535C14.2111 5.31743 14.2641 5.36951 14.2974 5.43368Z" fill="white"/>
</svg>
