<svg width="21" height="21" viewBox="0 0 21 21" fill="none" xmlns="http://www.w3.org/2000/svg">
<path fill-rule="evenodd" clip-rule="evenodd" d="M6.73344 11.717C6.16927 11.717 5.71094 11.2586 5.71094 10.6945C5.71094 10.132 6.16927 9.67365 6.73344 9.67365C7.2976 9.67365 7.75594 10.132 7.75594 10.6945C7.75594 11.2586 7.2976 11.717 6.73344 11.717ZM10.7084 11.717C10.1443 11.717 9.68594 11.2586 9.68594 10.6945C9.68594 10.132 10.1443 9.67365 10.7084 9.67365C11.2726 9.67365 11.7309 10.132 11.7309 10.6945C11.7309 11.2586 11.2726 11.717 10.7084 11.717ZM13.661 10.6945C13.661 11.2586 14.1194 11.717 14.6835 11.717C15.2477 11.717 15.706 11.2586 15.706 10.6945C15.706 10.132 15.2477 9.67365 14.6835 9.67365C14.1194 9.67365 13.661 10.132 13.661 10.6945Z" fill="#A7A7A7"/>
<path fill-rule="evenodd" clip-rule="evenodd" d="M10.5175 1.75C5.43375 1.75 1.75 5.90285 1.75 10.5131C1.75 11.9854 2.17875 13.5005 2.93125 14.8851C3.07125 15.1138 3.08875 15.4021 2.9925 15.6746L2.40625 17.6376C2.275 18.1108 2.6775 18.4604 3.12375 18.3202L4.89125 17.7953C5.3725 17.6376 5.74875 17.8383 6.195 18.1108C7.4725 18.8635 9.065 19.25 10.5 19.25C14.84 19.25 19.25 15.8937 19.25 10.4869C19.25 5.82399 15.4875 1.75 10.5175 1.75Z" stroke="#A7A7A7" stroke-width="1.5" stroke-linecap="round" stroke-linejoin="round"/>
</svg>
