<svg width="21" height="21" viewBox="0 0 21 21" fill="none" xmlns="http://www.w3.org/2000/svg">
<path fill-rule="evenodd" clip-rule="evenodd" d="M3.06322 12.0637V11.8721C3.09133 11.3052 3.27302 10.7559 3.58956 10.2809C4.11644 9.71028 4.47712 9.01102 4.63375 8.25648C4.63375 7.67331 4.63375 7.08182 4.68469 6.49865C4.94786 3.69111 7.72387 1.75 10.4659 1.75H10.5338C13.2759 1.75 16.0519 3.69111 16.3236 6.49865C16.3745 7.08182 16.3236 7.67331 16.366 8.25648C16.5248 9.01277 16.8851 9.7142 17.4102 10.2892C17.7291 10.7601 17.9111 11.3073 17.9365 11.8721V12.0554C17.9555 12.817 17.6932 13.5597 17.198 14.1465C16.5436 14.8325 15.6556 15.2594 14.7021 15.3461C11.9061 15.6461 9.08515 15.6461 6.28917 15.3461C5.33675 15.2556 4.45004 14.8294 3.79331 14.1465C3.30575 13.5593 3.04696 12.821 3.06322 12.0637Z" stroke="#A7A7A7" stroke-width="1.5" stroke-linecap="round" stroke-linejoin="round"/>
<path d="M8.36035 18.2453C8.79722 18.7936 9.43875 19.1485 10.143 19.2314C10.8472 19.3142 11.5561 19.1183 12.1126 18.6868C12.2838 18.5592 12.4379 18.4109 12.5711 18.2453" stroke="#A7A7A7" stroke-width="1.5" stroke-linecap="round" stroke-linejoin="round"/>
</svg>
