<svg width="21" height="21" viewBox="0 0 21 21" fill="none" xmlns="http://www.w3.org/2000/svg">
<path d="M2.45361 13.5424C2.45361 13.5424 2.57786 15.0631 2.60674 15.5426C2.64524 16.1857 2.89374 16.9041 3.30849 17.4029C3.89386 18.1099 4.58336 18.3592 5.50386 18.361C6.58624 18.3627 14.4569 18.3627 15.5392 18.361C16.4597 18.3592 17.1492 18.1099 17.7346 17.4029C18.1494 16.9041 18.3979 16.1857 18.4372 15.5426C18.4652 15.0631 18.5895 13.5424 18.5895 13.5424" stroke="#A7A7A7" stroke-width="1.5" stroke-linecap="round" stroke-linejoin="round"/>
<path d="M7.43408 4.6633V4.33868C7.43408 3.27118 8.29858 2.40668 9.36608 2.40668H11.6253C12.692 2.40668 13.5573 3.27118 13.5573 4.33868L13.5582 4.6633" stroke="#A7A7A7" stroke-width="1.5" stroke-linecap="round" stroke-linejoin="round"/>
<path d="M10.4956 14.5934V13.4612" stroke="#A7A7A7" stroke-width="1.5" stroke-linecap="round" stroke-linejoin="round"/>
<path fill-rule="evenodd" clip-rule="evenodd" d="M2.40625 7.34042V10.374C4.0845 11.4809 6.09525 12.2562 8.302 12.5633C8.56625 11.5999 9.43512 10.8938 10.4912 10.8938C11.5307 10.8938 12.4171 11.5999 12.6639 12.572C14.8794 12.2649 16.898 11.4897 18.585 10.374V7.34042C18.585 5.85817 17.3924 4.66467 15.9101 4.66467H5.08987C3.60762 4.66467 2.40625 5.85817 2.40625 7.34042Z" stroke="#A7A7A7" stroke-width="1.5" stroke-linecap="round" stroke-linejoin="round"/>
</svg>
