<svg width="18" height="18" viewBox="0 0 18 18" fill="none" xmlns="http://www.w3.org/2000/svg">
<path d="M1 9H1.88889M9 1V1.88889M16.1111 9H17M3.31111 3.31111L3.93333 3.93333M14.6889 3.31111L14.0667 3.93333M6.95556 13.4444H11.0444M6.33333 12.5556C5.58708 11.9959 5.03585 11.2156 4.75772 10.3252C4.47958 9.43481 4.48865 8.47949 4.78363 7.59454C5.07861 6.7096 5.64455 5.9399 6.40129 5.39448C7.15802 4.84905 8.06719 4.55556 9 4.55556C9.93281 4.55556 10.842 4.84905 11.5987 5.39448C12.3554 5.9399 12.9214 6.7096 13.2164 7.59454C13.5114 8.47949 13.5204 9.43481 13.2423 10.3252C12.9641 11.2156 12.4129 11.9959 11.6667 12.5556C11.3196 12.8991 11.0583 13.3195 10.9039 13.7828C10.7495 14.246 10.7063 14.7392 10.7778 15.2222C10.7778 15.6937 10.5905 16.1459 10.2571 16.4793C9.92368 16.8127 9.4715 17 9 17C8.5285 17 8.07632 16.8127 7.74292 16.4793C7.40952 16.1459 7.22222 15.6937 7.22222 15.2222C7.29374 14.7392 7.25054 14.246 7.09611 13.7828C6.94169 13.3195 6.68038 12.8991 6.33333 12.5556Z" stroke="#0866F2" stroke-width="2" stroke-linecap="round" stroke-linejoin="round"/>
</svg>
