<svg width="34" height="36" viewBox="0 0 34 36" fill="none" xmlns="http://www.w3.org/2000/svg">
<path d="M32.1903 8.16741L17.7904 0.283474C17.4537 0.0975306 17.0754 0 16.6908 0C16.3062 0 15.9278 0.0975306 15.5911 0.283474L1.19126 8.16741C0.830947 8.36456 0.53026 8.65495 0.320682 9.00818C0.111105 9.36141 0.000345053 9.76448 0 10.1752V25.8253C0.000345053 26.236 0.111105 26.6391 0.320682 26.9923C0.53026 27.3455 0.830947 27.6359 1.19126 27.8331L15.5911 35.717C15.9279 35.9026 16.3062 36 16.6908 36C17.0753 36 17.4536 35.9026 17.7904 35.717L32.1903 27.8331C32.5506 27.6359 32.8513 27.3455 33.0609 26.9923C33.2704 26.6391 33.3812 26.236 33.3815 25.8253V10.1752C33.3812 9.76448 33.2704 9.36141 33.0609 9.00818C32.8513 8.65495 32.5506 8.36456 32.1903 8.16741ZM16.5271 2.00491C16.5753 1.97856 16.6293 1.96475 16.6842 1.96475C16.7391 1.96475 16.7931 1.97856 16.8413 2.00491L30.5196 9.49121L24.9658 12.5299L11.1354 4.96016L16.5271 2.00491ZM15.709 33.5456L2.12725 26.1116C2.07707 26.0826 2.03548 26.0409 2.00673 25.9906C1.97798 25.9402 1.9631 25.8832 1.96362 25.8253V11.2356L15.709 18.7628V33.5456ZM2.86198 9.49121L9.09156 6.07943L22.9204 13.6492L16.6908 17.0577L2.86198 9.49121ZM31.4179 25.8253C31.4184 25.8832 31.4036 25.9402 31.3748 25.9906C31.3461 26.0409 31.3045 26.0826 31.2543 26.1116L17.6726 33.5456V18.7595L23.5634 15.5343V21.9275C23.5634 22.1879 23.6669 22.4376 23.851 22.6217C24.0351 22.8058 24.2849 22.9093 24.5452 22.9093C24.8056 22.9093 25.0554 22.8058 25.2395 22.6217C25.4236 22.4376 25.5271 22.1879 25.5271 21.9275V14.4608L31.4179 11.2356V25.8253Z" fill="white"/>
</svg>
