<svg width="32" height="35" viewBox="0 0 32 35" fill="none" xmlns="http://www.w3.org/2000/svg">
<path d="M27.0773 22.1539H19.6929V19.6924H27.0773V22.1539ZM32.0003 31.9998H24.6159V29.5384H32.0003V31.9998ZM29.5388 27.0769H22.1544V24.6154H29.5388V27.0769Z" fill="white"/>
<path d="M16.0039 22.1534C15.9952 21.1149 15.7182 20.0963 15.1998 19.1965C14.6814 18.2966 13.9392 17.546 13.0451 17.0175L22.1539 1.23075L20.0247 0L10.6993 16.1548C9.55488 15.8991 8.36457 15.9345 7.23729 16.2576C6.11001 16.5808 5.08175 17.1814 4.24655 18.0046C-0.361367 22.4488 -0.00445058 32.8388 0.0127799 33.2794C0.0255022 33.5972 0.160765 33.8977 0.39021 34.118C0.619655 34.3383 0.925465 34.4611 1.24353 34.4609H19.6936C19.952 34.4609 20.2037 34.3796 20.4133 34.2286C20.6228 34.0775 20.7795 33.8644 20.8612 33.6193C20.9429 33.3743 20.9454 33.1097 20.8684 32.8632C20.7914 32.6166 20.6387 32.4005 20.4321 32.2455C16.0752 28.9767 16.0039 22.2199 16.0039 22.1534ZM9.76029 18.4575C10.7453 18.4683 11.6883 18.8585 12.393 19.5469C13.0976 20.2353 13.5098 21.1689 13.5436 22.1534C13.5436 22.2002 13.5461 22.4094 13.5645 22.7306L6.30312 19.5012C6.78144 19.1068 7.3334 18.8114 7.92691 18.6322C8.52042 18.453 9.14362 18.3936 9.76029 18.4575ZM14.0925 31.9994C13.1088 30.9977 12.4817 29.7003 12.3079 28.3072H9.84644C9.93459 29.617 10.3437 30.8851 11.0378 31.9994H8.30185C7.79571 30.4022 7.48777 28.7488 7.38495 27.0764H4.92346C5.00282 28.7438 5.27752 30.3961 5.7419 31.9994H2.46196C2.50012 29.7397 2.81888 24.7478 4.681 21.4728L13.9522 25.5958C14.3977 27.9088 15.3473 30.0951 16.7337 31.9994H14.0925Z" fill="white"/>
</svg>
