<svg width="33" height="28" viewBox="0 0 33 28" fill="none" xmlns="http://www.w3.org/2000/svg">
<path d="M30.4615 0H2.53846C1.86522 0 1.21955 0.267444 0.743498 0.743498C0.267444 1.21955 0 1.86522 0 2.53846V25.3846C0 26.0579 0.267444 26.7035 0.743498 27.1796C1.21955 27.6556 1.86522 27.9231 2.53846 27.9231H4.66284C4.90305 27.9232 5.13835 27.8551 5.3414 27.7267C5.54445 27.5984 5.70691 27.415 5.8099 27.198C6.4271 25.895 7.40154 24.7939 8.61989 24.0229C9.83825 23.2518 11.2505 22.8425 12.6923 22.8425C14.1341 22.8425 15.5464 23.2518 16.7647 24.0229C17.9831 24.7939 18.9575 25.895 19.5747 27.198C19.6777 27.415 19.8402 27.5984 20.0432 27.7267C20.2463 27.8551 20.4816 27.9232 20.7218 27.9231H30.4615C31.1348 27.9231 31.7804 27.6556 32.2565 27.1796C32.7326 26.7035 33 26.0579 33 25.3846V2.53846C33 1.86522 32.7326 1.21955 32.2565 0.743498C31.7804 0.267444 31.1348 0 30.4615 0ZM8.88461 16.5C8.88461 15.7469 9.10793 15.0107 9.52633 14.3846C9.94472 13.7584 10.5394 13.2703 11.2352 12.9822C11.9309 12.694 12.6965 12.6186 13.4352 12.7655C14.1738 12.9124 14.8522 13.275 15.3848 13.8076C15.9173 14.3401 16.2799 15.0185 16.4268 15.7572C16.5738 16.4958 16.4984 17.2614 16.2102 17.9571C15.922 18.6529 15.4339 19.2476 14.8077 19.666C14.1816 20.0844 13.4454 20.3077 12.6923 20.3077C11.6824 20.3077 10.7139 19.9065 9.99986 19.1924C9.28578 18.4784 8.88461 17.5099 8.88461 16.5ZM30.4615 25.3846H21.4865C20.4266 23.5624 18.8289 22.1126 16.9125 21.2342C17.8733 20.3787 18.5514 19.2514 18.8569 18.0018C19.1624 16.7521 19.0809 15.4391 18.6232 14.2368C18.1655 13.0345 17.3533 11.9997 16.2941 11.2696C15.2349 10.5395 13.9788 10.1485 12.6923 10.1485C11.4058 10.1485 10.1498 10.5395 9.09056 11.2696C8.03136 11.9997 7.21908 13.0345 6.76138 14.2368C6.30368 15.4391 6.22219 16.7521 6.52771 18.0018C6.83323 19.2514 7.51133 20.3787 8.47212 21.2342C6.55574 22.1126 4.95804 23.5624 3.89812 25.3846H2.53846V2.53846H30.4615V25.3846ZM5.07692 8.88462V6.34615C5.07692 6.00953 5.21065 5.6867 5.44867 5.44867C5.6867 5.21065 6.00953 5.07692 6.34615 5.07692H26.6538C26.9905 5.07692 27.3133 5.21065 27.5513 5.44867C27.7894 5.6867 27.9231 6.00953 27.9231 6.34615V21.5769C27.9231 21.9135 27.7894 22.2364 27.5513 22.4744C27.3133 22.7124 26.9905 22.8462 26.6538 22.8462H24.1154C23.7788 22.8462 23.4559 22.7124 23.2179 22.4744C22.9799 22.2364 22.8462 21.9135 22.8462 21.5769C22.8462 21.2403 22.9799 20.9175 23.2179 20.6794C23.4559 20.4414 23.7788 20.3077 24.1154 20.3077H25.3846V7.61539H7.61538V8.88462C7.61538 9.22124 7.48166 9.54407 7.24364 9.7821C7.00561 10.0201 6.68277 10.1538 6.34615 10.1538C6.00953 10.1538 5.6867 10.0201 5.44867 9.7821C5.21065 9.54407 5.07692 9.22124 5.07692 8.88462Z" fill="white"/>
</svg>
