<svg width="30" height="34" viewBox="0 0 30 34" fill="none" xmlns="http://www.w3.org/2000/svg">
<path d="M1.08152 13.175C0.890398 13.1767 0.702224 13.1278 0.536104 13.0333C0.414258 12.9648 0.307296 12.8727 0.221474 12.7624C0.135653 12.6521 0.072696 12.5257 0.0362874 12.3908C-0.000121201 12.2558 -0.00925033 12.115 0.00943419 11.9765C0.0281187 11.8379 0.0742418 11.7045 0.145104 11.5841C1.51077 9.30465 5.66584 3.98438 14.7325 3.98438C18.6616 3.98438 22.1076 5.01641 24.97 7.05074C27.3259 8.72028 28.6462 10.6101 29.2752 11.5203C29.355 11.635 29.411 11.7646 29.44 11.9013C29.469 12.038 29.4703 12.1791 29.4439 12.3163C29.4175 12.4536 29.3639 12.5841 29.2863 12.7003C29.2087 12.8165 29.1086 12.916 28.9919 12.9929C28.7535 13.1505 28.4631 13.2091 28.1822 13.1562C27.9014 13.1033 27.6522 12.9431 27.4874 12.7096C26.3491 11.0726 22.8783 6.09166 14.7325 6.09166C6.78147 6.09166 3.18668 10.6753 2.01581 12.6409C1.92173 12.805 1.78553 12.9411 1.62128 13.035C1.45704 13.1289 1.2707 13.1772 1.08152 13.175Z" fill="white"/>
<path d="M19.3003 33.9999C19.2099 34.001 19.1197 33.9908 19.0318 33.9695C12.455 32.3403 9.9992 25.7656 9.89932 25.4921L9.88374 25.4319C9.82991 25.2421 8.51028 20.7336 10.5361 18.0929C11.4647 16.8887 12.8772 16.2711 14.7422 16.2711C16.4762 16.2711 17.7271 16.8101 18.587 17.9257C19.2953 18.8367 19.5787 19.9601 19.8528 21.0424C20.4287 23.2963 20.8445 24.4799 23.2379 24.6018C24.2891 24.6549 24.9797 24.0401 25.3714 23.5166C26.4304 22.0893 26.6145 19.7625 25.8162 17.7083C24.7906 15.057 21.1505 10.0583 14.7323 10.0583C11.9924 10.0583 9.47503 10.9388 7.45629 12.5934C5.78533 13.964 4.46146 15.8992 3.82396 17.8882C2.64176 21.5914 4.1923 27.4124 4.20717 27.4656C4.24337 27.601 4.25208 27.7424 4.23279 27.8813C4.21349 28.0202 4.16658 28.1538 4.09482 28.2743C4.02306 28.3948 3.92791 28.4997 3.81497 28.5828C3.70202 28.6659 3.57358 28.7256 3.43721 28.7583C3.16172 28.8315 2.86848 28.794 2.62036 28.6536C2.37223 28.5133 2.18895 28.2813 2.1098 28.0074C2.03897 27.7418 0.382887 21.5333 1.74855 17.2535C3.23605 12.6161 7.82675 7.9411 14.7344 7.9411C17.9268 7.9411 20.9429 9.02627 23.4603 11.0755C25.4097 12.6692 27.002 14.8098 27.835 16.9497C28.8939 19.6817 28.6099 22.7481 27.1132 24.7512C26.1159 26.0871 24.6957 26.7856 23.1225 26.7098C19.0241 26.5043 18.2874 23.6434 17.7505 21.5567C17.198 19.4161 16.8445 18.384 14.7344 18.384C13.5756 18.384 12.7617 18.7028 12.2552 19.3629C11.5646 20.2661 11.5108 21.6778 11.5873 22.702C11.6375 23.4156 11.7585 24.1225 11.9485 24.8121C12.1171 25.2371 14.3122 30.6205 19.5695 31.9231C19.7054 31.9553 19.8335 32.0142 19.9464 32.0963C20.0594 32.1784 20.1548 32.2822 20.2273 32.4015C20.2998 32.5209 20.3479 32.6535 20.3687 32.7915C20.3895 32.9296 20.3827 33.0705 20.3486 33.2059C20.2845 33.4345 20.1473 33.6358 19.958 33.7792C19.7687 33.9226 19.5377 34.0001 19.3003 33.9999Z" fill="white"/>
<path d="M10.8583 33.5141C10.7109 33.5144 10.5649 33.485 10.4291 33.4277C10.2933 33.3704 10.1704 33.2863 10.0678 33.1805C7.43561 30.418 5.9467 27.329 5.38641 23.4664V23.4459C5.07191 20.8888 5.53233 17.2685 7.78836 14.7794C9.45365 12.9427 11.7947 12.0092 14.7343 12.0092C18.2108 12.0092 20.9428 13.6256 22.6463 16.6764C23.8824 18.8927 24.1275 21.1013 24.1338 21.192C24.1468 21.3318 24.132 21.4727 24.0904 21.6068C24.0488 21.7409 23.9812 21.8655 23.8914 21.9734C23.8016 22.0813 23.6914 22.1704 23.567 22.2357C23.4427 22.3009 23.3068 22.341 23.167 22.3536C22.8848 22.3842 22.602 22.3027 22.3795 22.1266C22.157 21.9504 22.0126 21.6939 21.9777 21.4123C21.7911 20.0871 21.3623 18.8075 20.7126 17.6376C19.3923 15.3079 17.3834 14.1235 14.7265 14.1235C12.4315 14.1235 10.6359 14.8141 9.40053 16.1777C7.61978 18.1433 7.27553 21.1714 7.51991 23.1746C8.01078 26.5902 9.32332 29.3073 11.641 31.7355C11.7377 31.8361 11.8132 31.9552 11.863 32.0856C11.9128 32.216 11.9359 32.355 11.9309 32.4945C11.9259 32.634 11.8928 32.7711 11.8338 32.8976C11.7747 33.024 11.6909 33.1374 11.5871 33.2308C11.3874 33.4118 11.1278 33.5127 10.8583 33.5141Z" fill="white"/>
<path d="M22.9844 30.471C20.6823 30.471 18.7252 29.8335 17.1591 28.5663C14.0127 26.0312 13.6599 21.9023 13.6444 21.7281C13.6222 21.4421 13.7146 21.1589 13.9011 20.941C14.0877 20.7231 14.3532 20.5882 14.6392 20.5661C14.9252 20.5439 15.2083 20.6363 15.4263 20.8228C15.6442 21.0094 15.7791 21.2749 15.8012 21.5609C15.809 21.6218 16.1235 24.9992 18.5488 26.9442C19.9839 28.0903 21.9021 28.5451 24.2658 28.2794C24.5483 28.2452 24.8329 28.3241 25.0573 28.4991C25.2818 28.674 25.4278 28.9307 25.4636 29.213C25.479 29.3525 25.4666 29.4936 25.4269 29.6282C25.3873 29.7628 25.3212 29.8882 25.2326 29.997C25.144 30.1058 25.0346 30.1958 24.9108 30.2619C24.787 30.3279 24.6513 30.3687 24.5116 30.3818C24.0047 30.4409 23.4948 30.4707 22.9844 30.471ZM24.8034 2.32262C23.9052 1.73825 20.7206 0 14.7324 0C8.44662 0 5.25417 1.92029 4.54796 2.40833C4.50132 2.43696 4.45766 2.47018 4.41763 2.50749C4.4134 2.51158 4.4079 2.51408 4.40205 2.51458C4.28927 2.61304 4.19879 2.73441 4.13662 2.8706C4.07445 3.00679 4.04202 3.15466 4.0415 3.30437C4.04344 3.4447 4.07305 3.58327 4.12864 3.71214C4.18422 3.84101 4.26469 3.95765 4.36544 4.05536C4.46618 4.15308 4.58521 4.22995 4.71572 4.28158C4.84622 4.33321 4.98563 4.35858 5.12596 4.35624C5.35088 4.35609 5.57037 4.28713 5.75496 4.15862C5.78542 4.13595 8.53303 2.1172 14.7345 2.1172C20.9359 2.1172 23.6984 4.12887 23.7282 4.14374C23.9168 4.28359 24.1458 4.35819 24.3805 4.35624C24.521 4.35839 24.6605 4.33279 24.791 4.2809C24.9215 4.22901 25.0405 4.15185 25.1411 4.05385C25.2418 3.95586 25.3221 3.83895 25.3774 3.70985C25.4327 3.58075 25.462 3.44199 25.4636 3.30153C25.4636 3.09115 25.4008 2.88555 25.2832 2.71112C25.1656 2.5367 24.9985 2.40141 24.8034 2.32262Z" fill="white"/>
</svg>
