<svg width="33" height="33" viewBox="0 0 33 33" fill="none" xmlns="http://www.w3.org/2000/svg">
<path d="M5.89875 0.122598C6.10882 0.223577 6.28609 0.381817 6.41015 0.579096C6.53422 0.776376 6.60002 1.00467 6.6 1.2377C6.6 2.60684 7.1148 3.39533 7.75995 4.35537L7.8078 4.42465C8.3556 5.23954 9.075 6.3068 9.075 7.83595C9.075 9.39643 8.28795 10.7722 7.0884 11.5887C7.40355 11.8526 7.6824 12.1776 7.9233 12.5669C8.7087 13.837 9.075 15.7786 9.075 18.5663C9.075 21.3904 8.6955 24.7819 8.07675 27.4905C7.76985 28.8365 7.3887 30.0786 6.93495 31.0106C6.72073 31.4744 6.43696 31.9027 6.09345 32.2808C5.75355 32.6288 5.2305 33 4.5375 33C3.8445 33 3.32145 32.6288 2.9832 32.2808C2.6387 31.9035 2.35482 31.475 2.1417 31.0106C1.6863 30.077 1.30515 28.8365 0.998251 27.4888C0.354663 24.5571 0.0200869 21.5661 1.58978e-06 18.5647C1.58978e-06 15.7769 0.366301 13.837 1.1517 12.5669C1.37577 12.1982 1.65766 11.8679 1.9866 11.5887C1.37408 11.1729 0.872747 10.6135 0.526437 9.95933C0.180127 9.30514 -0.000618429 8.5761 1.58978e-06 7.83595C1.58978e-06 7.22891 1.42604e-06 6.18474 0.631951 4.83704C1.2507 3.5174 2.42715 2.00145 4.58865 0.271059C4.77082 0.125376 4.99048 0.0341403 5.22228 0.00787269C5.45408 -0.0183949 5.68858 0.0213756 5.89875 0.122598ZM2.475 7.8343C2.475 8.38116 2.6923 8.90728 3.07909 9.29397C3.46589 9.68066 3.99049 9.8979 4.5375 9.8979C5.08451 9.8979 5.60912 9.68066 5.99591 9.29397C6.3827 8.90728 6.6 8.38281 6.6 7.83595C6.6 7.11179 6.29475 6.61032 5.7057 5.73441L5.6859 5.70471C5.30805 5.14386 4.8609 4.47909 4.5441 3.62627C3.64815 4.53682 3.15315 5.29232 2.8743 5.88616C2.475 6.73734 2.475 7.34438 2.475 7.8343ZM3.2571 13.8667C2.8479 14.5299 2.475 15.8891 2.475 18.5663C2.475 21.2073 2.8347 24.414 3.41055 26.9395C3.70095 28.2097 4.03095 29.2407 4.3659 29.9269C4.42695 30.0539 4.4847 30.1595 4.5375 30.2485C4.5903 30.1595 4.64805 30.0539 4.7091 29.9269C5.04405 29.2407 5.37405 28.208 5.66445 26.9395C6.24195 24.4157 6.6 21.2089 6.6 18.5663C6.6 15.8891 6.2271 14.5299 5.8179 13.8667C5.69449 13.6435 5.50796 13.4616 5.28165 13.3438C5.04733 13.2418 4.79285 13.1944 4.5375 13.2053C4.2075 13.2053 3.97155 13.2564 3.79335 13.3438C3.56704 13.4616 3.38051 13.6435 3.2571 13.8667ZM13.2 21.3096C12.3258 21.163 11.4755 20.8988 10.6722 20.5244C10.7205 19.5888 10.7343 18.6518 10.7135 17.7152C11.4576 18.215 12.2975 18.5828 13.2 18.7874V14.0218C13.2 13.3656 13.4608 12.7362 13.9249 12.2722C14.3891 11.8081 15.0186 11.5475 15.675 11.5475H22.275C22.2749 10.163 21.8876 8.8061 21.1567 7.63014C20.4258 6.45418 19.3805 5.50601 18.1389 4.89276C16.8973 4.27951 15.5089 4.02562 14.1305 4.15977C12.7522 4.29392 11.4389 4.81077 10.3389 5.65193C10.0089 4.73972 9.53865 4.04196 9.21195 3.55698L9.14595 3.45801C10.6284 2.41325 12.3695 1.79573 14.1791 1.67284C15.9887 1.54995 17.7973 1.92642 19.4074 2.76116C21.0176 3.59589 22.3674 4.85681 23.3096 6.40627C24.2517 7.95573 24.75 9.73417 24.75 11.5475H30.525C31.1814 11.5475 31.8109 11.8081 32.2751 12.2722C32.7392 12.7362 33 13.3656 33 14.0218V28.8678C33 29.5241 32.7392 30.1534 32.2751 30.6175C31.8109 31.0815 31.1814 31.3422 30.525 31.3422H15.675C15.0186 31.3422 14.3891 31.0815 13.9249 30.6175C13.4608 30.1534 13.2 29.5241 13.2 28.8678V21.3079V21.3096ZM15.675 21.4135V28.8695H30.525V14.0234H24.4365C23.9224 16.0112 22.8032 17.7901 21.2335 19.114C19.6639 20.438 17.7214 21.2415 15.675 21.4135ZM21.8526 14.0234H15.675V18.9276C17.0613 18.7722 18.3759 18.2299 19.4684 17.3626C20.5609 16.4953 21.3871 15.3381 21.8526 14.0234Z" fill="white"/>
</svg>
