<svg width="28" height="30" viewBox="0 0 28 30" fill="none" xmlns="http://www.w3.org/2000/svg">
<path d="M4.6665 9.33333V3.33333C4.6665 2.97971 4.80698 2.64057 5.05703 2.39052C5.30708 2.14048 5.64622 2 5.99984 2H24.6665C25.0201 2 25.3593 2.14048 25.6093 2.39052C25.8594 2.64057 25.9998 2.97971 25.9998 3.33333V27.3333C25.9998 27.687 25.8594 28.0261 25.6093 28.2761C25.3593 28.5262 25.0201 28.6667 24.6665 28.6667H5.99984C5.64622 28.6667 5.30708 28.5262 5.05703 28.2761C4.80698 28.0261 4.6665 27.687 4.6665 27.3333V21.3333" stroke="white" stroke-width="2.5" stroke-linecap="round" stroke-linejoin="round"/>
<path d="M20 9.33331H22M18 14.6666H22M18 20H22" stroke="white" stroke-width="2.5" stroke-linecap="round"/>
<path d="M6 13.3333L10 17.3333M10 13.3333L6 17.3333M2 9.33331H14V21.3333H2V9.33331Z" stroke="white" stroke-width="2.5" stroke-linecap="round" stroke-linejoin="round"/>
</svg>
