<svg width="34" height="41" viewBox="0 0 34 41" fill="none" xmlns="http://www.w3.org/2000/svg">
<path d="M29.2415 13.0035H29.2414H5.03448H5.03438C3.93821 13.0045 2.88725 13.4405 2.11214 14.2156C1.33703 14.9907 0.901095 16.0417 0.9 17.1378V17.1379L0.9 25.2069L0.9 25.207C0.900739 25.9466 1.19487 26.6557 1.71786 27.1787C2.21725 27.6781 2.88634 27.9688 3.58965 27.9947L3.58965 37.3103L3.58965 37.3104C3.59039 38.0501 3.88453 38.7592 4.40751 39.2821C4.9305 39.8051 5.6396 40.0993 6.37921 40.1H6.37931H11.7586H11.7587C12.4983 40.0993 13.2074 39.8051 13.7304 39.2821C14.2534 38.7592 14.5475 38.0501 14.5483 37.3104V37.3103V21.1724V21.0724H14.4483H11.7586H11.6586V21.1724V37.2104H6.47931V25.2069V25.1069H6.37931H3.78965V17.1379C3.78965 16.8078 3.92081 16.4912 4.15426 16.2577C4.38771 16.0243 4.70433 15.8931 5.03448 15.8931H29.2414C29.5715 15.8931 29.8882 16.0243 30.1216 16.2577C30.3551 16.4912 30.4862 16.8078 30.4862 17.1379V25.1069H27.8965H27.7965V25.2069V37.2104H22.6172V21.1724V21.0724H22.5172H19.8276H19.7276V21.1724V37.3103V37.3104C19.7283 38.0501 20.0225 38.7592 20.5454 39.2821C21.0684 39.8051 21.7775 40.0993 22.5171 40.1H22.5172H27.8965H27.8966C28.6363 40.0993 29.3454 39.8051 29.8683 39.2821C30.3913 38.7592 30.6855 38.0501 30.6862 37.3104V37.3103V27.9947C31.3895 27.9688 32.0586 27.6781 32.558 27.1787C33.081 26.6557 33.3751 25.9466 33.3759 25.207V25.2069V17.1379V17.1378C33.3748 16.0417 32.9388 14.9907 32.1637 14.2156C31.3886 13.4405 30.3376 13.0045 29.2415 13.0035ZM9.06896 11.8586H9.06907C10.5218 11.8572 11.9146 11.2794 12.9418 10.2522C13.9691 9.22496 14.5468 7.83214 14.5483 6.37941V6.37931C14.5483 5.29561 14.2269 4.23624 13.6248 3.33517C13.0228 2.4341 12.167 1.73181 11.1658 1.31709C10.1646 0.902374 9.06289 0.793865 8 1.00529C6.93712 1.21671 5.9608 1.73856 5.19451 2.50486C4.42821 3.27115 3.90636 4.24747 3.69494 5.31035C3.48352 6.37323 3.59203 7.47494 4.00674 8.47615C4.42146 9.47737 5.12375 10.3331 6.02482 10.9352C6.92589 11.5373 7.98526 11.8586 9.06896 11.8586ZM25.2069 11.8586H25.207C26.6597 11.8572 28.0525 11.2794 29.0798 10.2522C30.107 9.22496 30.6848 7.83214 30.6862 6.37941V6.37931C30.6862 5.29561 30.3648 4.23624 29.7628 3.33517C29.1607 2.4341 28.3049 1.73181 27.3037 1.31709C26.3025 0.902374 25.2008 0.793865 24.1379 1.00529C23.0751 1.21671 22.0987 1.73856 21.3324 2.50486C20.5661 3.27115 20.0443 4.24747 19.8329 5.31035C19.6214 6.37324 19.73 7.47494 20.1447 8.47615C20.5594 9.47737 21.2617 10.3331 22.1628 10.9352C23.0638 11.5373 24.1232 11.8586 25.2069 11.8586ZM7.63023 4.22609C8.05607 3.94156 8.55671 3.78968 9.06886 3.78966C9.7555 3.79034 10.4138 4.06341 10.8993 4.54894C11.3849 5.03446 11.6579 5.69278 11.6586 6.37941C11.6586 6.89156 11.5067 7.39221 11.2222 7.81805C10.9376 8.24391 10.5332 8.57584 10.06 8.77184C9.58679 8.96785 9.06609 9.01913 8.56375 8.91921C8.0614 8.81929 7.59997 8.57265 7.2378 8.21048C6.87563 7.84831 6.62899 7.38687 6.52907 6.88453C6.42915 6.38219 6.48043 5.86149 6.67644 5.38829C6.87244 4.9151 7.20436 4.51065 7.63023 4.22609ZM23.7682 4.22609C24.194 3.94156 24.6946 3.78968 25.2068 3.78966C25.8934 3.79034 26.5517 4.06341 27.0373 4.54894C27.5228 5.03446 27.7959 5.69278 27.7965 6.37941C27.7965 6.89156 27.6446 7.39221 27.3601 7.81805C27.0756 8.24391 26.6711 8.57584 26.1979 8.77184C25.7247 8.96785 25.204 9.01913 24.7017 8.91921C24.1993 8.81929 23.7379 8.57265 23.3757 8.21048C23.0136 7.84831 22.7669 7.38687 22.667 6.88453C22.5671 6.38219 22.6184 5.86149 22.8144 5.38829C23.0104 4.9151 23.3423 4.51065 23.7682 4.22609Z" fill="white" stroke="white" stroke-width="0.2"/>
</svg>
