<svg width="32" height="32" viewBox="0 0 32 32" fill="none" xmlns="http://www.w3.org/2000/svg">
<path d="M20 30H28C28.5304 30 29.0391 29.7893 29.4142 29.4142C29.7893 29.0391 30 28.5304 30 28V4C30 3.46957 29.7893 2.96086 29.4142 2.58579C29.0391 2.21071 28.5304 2 28 2H20C19.4696 2 18.9609 2.21071 18.5858 2.58579C18.2107 2.96086 18 3.46957 18 4V28C18 28.5304 18.2107 29.0391 18.5858 29.4142C18.9609 29.7893 19.4696 30 20 30ZM20 30H9M14 24V30M18 12H30M21 24H27M4 8H18V24H4C3.46957 24 2.96086 23.7893 2.58579 23.4142C2.21071 23.0391 2 22.5304 2 22V10C2 9.46957 2.21071 8.96086 2.58579 8.58579C2.96086 8.21071 3.46957 8 4 8Z" stroke="white" stroke-width="2.5"/>
</svg>
