<svg width="42" height="37" viewBox="0 0 42 37" fill="none" xmlns="http://www.w3.org/2000/svg">
<path d="M33.8524 0L32.4165 0.414931L21.0237 3.65732L19.6351 4.07522L19.9137 5.09328L9.21443 1.99019L7.77996 1.57377L7.36354 3.00973L3.19497 17.1796C2.69112 18.9342 2.38437 21.0296 2.96379 23.0613C3.43207 24.7062 4.6087 26.2859 6.43736 27.2299L5.09328 32.0905L0.832826 30.8412L0 33.7132L11.3928 37L12.2256 34.1296L7.9652 32.8788L9.30779 28.0627C10.2361 28.1417 11.1708 28.0305 12.0547 27.736C12.9386 27.4414 13.7531 26.9697 14.4485 26.3496C16.0238 24.9374 16.9084 23.0554 17.4123 21.3008L21.0711 9.07514L24.0808 19.7744V19.8189C24.5847 21.5735 25.4708 23.4555 27.0446 24.8677C28.3294 26.0191 30.124 26.7142 32.1853 26.5348L33.5279 31.3969L29.2675 32.6477L30.1018 35.5181L41.4931 32.2313L40.6588 29.3593L36.3983 30.6101L35.0098 25.7465C36.8385 24.804 38.0136 23.2228 38.4834 21.5794C39.0613 19.5477 38.802 17.4523 38.2981 15.6977L34.2689 1.43448L33.8524 0ZM31.8608 3.65584L33.7132 10.2799H24.4513L23.2939 6.11134L31.8608 3.65584ZM9.81757 5.27852L18.3385 7.6866L17.1337 11.7618H7.87184L9.81757 5.27852ZM25.2856 13.2437H34.5475L35.4736 16.532C35.8723 17.9102 36.0116 19.5477 35.6589 20.7925C35.3047 22.0373 34.6334 22.9116 32.8329 23.4318C31.0324 23.9534 29.9966 23.5533 29.0363 22.6908C28.0745 21.8283 27.3054 20.3642 26.9053 18.9861L25.2856 13.2437ZM6.99307 14.7256H16.2549L14.5878 20.468H14.5419C14.1417 21.8461 13.4186 23.3102 12.4568 24.1727C11.4966 25.0352 10.4607 25.4353 8.6602 24.9136C6.8597 24.392 6.1884 23.5192 5.83423 22.2744C5.48154 21.0296 5.62083 19.3906 6.01946 18.0139L6.99307 14.7256Z" fill="white"/>
</svg>
