<svg width="30" height="33" viewBox="0 0 30 33" fill="none" xmlns="http://www.w3.org/2000/svg">
<path d="M19.6161 2.30754C19.3101 2.30754 19.0166 2.4291 18.8002 2.64547C18.5839 2.86184 18.4623 3.15531 18.4623 3.46131V5.76885C18.4623 6.07484 18.5839 6.36831 18.8002 6.58468C19.0166 6.80106 19.3101 6.92262 19.6161 6.92262C19.9221 6.92262 20.2155 6.80106 20.4319 6.58468C20.6483 6.36831 20.7698 6.07484 20.7698 5.76885C20.7698 5.46285 20.8914 5.16938 21.1078 4.95301C21.3242 4.73663 21.6176 4.61508 21.9236 4.61508C22.2296 4.61508 22.5231 4.73663 22.7395 4.95301C22.9558 5.16938 23.0774 5.46285 23.0774 5.76885C23.0776 6.33946 22.9368 6.90128 22.6675 7.40431C22.3981 7.90734 22.0086 8.33598 21.5335 8.65208C21.0585 8.96817 20.5126 9.16192 19.9446 9.21608C19.3765 9.27023 18.8039 9.18311 18.2777 8.96248C18.0739 10.789 17.6003 12.5753 16.8724 14.2629C15.924 16.4297 14.6779 17.9757 13.5542 19.2287C12.7512 20.1263 12.232 21.414 11.9251 22.9462C11.6182 24.4691 11.5397 26.1329 11.5397 27.6905C11.5397 28.3896 11.2859 29.2342 10.8244 29.998H20.5737C20.3336 29.3238 19.891 28.7403 19.3065 28.3272C18.722 27.9142 18.0242 27.6918 17.3085 27.6905H16.1548C15.8488 27.6905 15.5553 27.5689 15.3389 27.3525C15.1226 27.1362 15.001 26.8427 15.001 26.5367C15.001 26.2307 15.1226 25.9372 15.3389 25.7209C15.5553 25.5045 15.8488 25.3829 16.1548 25.3829H17.3085C17.7031 25.3829 18.0885 25.4221 18.4623 25.4983V21.9216C18.4623 21.6156 18.5839 21.3221 18.8002 21.1058C19.0166 20.8894 19.3101 20.7678 19.6161 20.7678C19.9221 20.7678 20.2155 20.8894 20.4319 21.1058C20.6483 21.3221 20.7698 21.6156 20.7698 21.9216V26.5367C21.8775 27.3674 22.6759 28.5904 22.962 29.998H27.4963C27.2576 29.3229 26.8154 28.7384 26.2306 28.3251C25.6458 27.9118 24.9472 27.6901 24.2312 27.6905C23.9252 27.6905 23.6317 27.5689 23.4153 27.3525C23.1989 27.1362 23.0774 26.8427 23.0774 26.5367V10.3839C23.0774 10.0779 23.1989 9.78446 23.4153 9.56808C23.6317 9.35171 23.9252 9.23015 24.2312 9.23015H26.5387C26.8447 9.23015 27.1382 9.1086 27.3545 8.89222C27.5709 8.67585 27.6925 8.38238 27.6925 8.07638V5.92114C27.6925 5.72175 27.6409 5.52575 27.5426 5.35226C27.4443 5.17876 27.3028 5.0337 27.1317 4.93121L23.0312 2.47137C22.852 2.36409 22.6471 2.30747 22.4382 2.30754H19.6161ZM6.92462 29.998C7.64919 29.998 8.20761 29.6473 8.62066 29.1327C9.05909 28.5812 9.23216 27.9627 9.23216 27.6905C9.23216 26.0752 9.31292 24.2361 9.66136 22.4916C10.0098 20.7609 10.6467 19.0187 11.8328 17.6919C12.8873 16.5151 13.9511 15.1767 14.7633 13.333C15.5687 11.4938 16.1548 9.08709 16.1548 5.76885V3.46131C16.1548 2.54331 16.5194 1.66291 17.1686 1.01379C17.8177 0.364673 18.6981 0 19.6161 0H22.4382C23.0658 5.96152e-05 23.6816 0.170752 24.2196 0.493813L28.3201 2.95365C28.8325 3.2612 29.2565 3.69615 29.5508 4.21617C29.8452 4.7362 30 5.32358 30 5.92114V8.07638C30 8.99438 29.6353 9.87478 28.9862 10.5239C28.3371 11.173 27.4567 11.5377 26.5387 11.5377H25.3849V25.4983C26.6879 25.7643 27.8591 26.4723 28.7001 27.5025C29.541 28.5327 30.0003 29.8219 30 31.1518C30 31.4578 29.8784 31.7512 29.6621 31.9676C29.4457 32.184 29.1522 32.3055 28.8462 32.3055H6.34773C4.98602 32.306 3.66028 31.8684 2.56641 31.0574C1.47254 30.2464 0.668555 29.105 0.27326 27.8019C-0.122036 26.4988 -0.0876772 25.1032 0.371259 23.8211C0.830195 22.5391 1.68936 21.4387 2.82182 20.6825C2.94765 20.5951 3.08962 20.5336 3.23946 20.5017C3.3893 20.4697 3.544 20.4679 3.69453 20.4964C3.84507 20.5249 3.98842 20.5831 4.11623 20.6676C4.24403 20.7521 4.35374 20.8612 4.43893 20.9885C4.52413 21.1158 4.58311 21.2588 4.61244 21.4092C4.64176 21.5596 4.64085 21.7143 4.60975 21.8643C4.57864 22.0143 4.51798 22.1566 4.43128 22.283C4.34459 22.4093 4.2336 22.5171 4.10481 22.6C3.38356 23.081 2.83621 23.7812 2.54371 24.5973C2.25122 25.4133 2.22909 26.3018 2.48061 27.1314C2.73213 27.961 3.24394 28.6877 3.94036 29.2039C4.63678 29.7201 5.48084 29.9986 6.34773 29.998H6.92462Z" fill="white"/>
</svg>
