<svg width="35" height="28" viewBox="0 0 35 28" fill="none" xmlns="http://www.w3.org/2000/svg">
<path d="M9.933 8.75H7C6.07174 8.75 5.1815 9.11875 4.52513 9.77513C3.86875 10.4315 3.5 11.3217 3.5 12.25V21C3.5 21.9283 3.86875 22.8185 4.52513 23.4749C5.1815 24.1313 6.07174 24.5 7 24.5H28C28.9283 24.5 29.8185 24.1313 30.4749 23.4749C31.1313 22.8185 31.5 21.9283 31.5 21V12.25C31.5 11.3217 31.1313 10.4315 30.4749 9.77513C29.8185 9.11875 28.9283 8.75 28 8.75H25.067L24.3898 6.12325C24.1949 5.37243 23.7563 4.70752 23.1428 4.23278C22.5294 3.75803 21.7757 3.5003 21 3.5H14C13.2241 3.4997 12.4702 3.75721 11.8566 4.23204C11.243 4.70688 10.8046 5.37213 10.6103 6.12325L9.933 8.75ZM7.2205 5.25C7.9975 2.23125 10.738 0 14 0H21C22.552 0.000206409 24.06 0.515942 25.2871 1.4662C26.5142 2.41646 27.3909 3.74741 27.7795 5.25H28C29.8565 5.25 31.637 5.9875 32.9497 7.30025C34.2625 8.61301 35 10.3935 35 12.25V21C35 22.8565 34.2625 24.637 32.9497 25.9497C31.637 27.2625 29.8565 28 28 28H7C5.14348 28 3.36301 27.2625 2.05025 25.9497C0.737498 24.637 0 22.8565 0 21V12.25C0 10.3935 0.737498 8.61301 2.05025 7.30025C3.36301 5.9875 5.14348 5.25 7 5.25H7.2205ZM17.5 22.75C15.6435 22.75 13.863 22.0125 12.5503 20.6997C11.2375 19.387 10.5 17.6065 10.5 15.75C10.5 13.8935 11.2375 12.113 12.5503 10.8003C13.863 9.4875 15.6435 8.75 17.5 8.75C19.3565 8.75 21.137 9.4875 22.4497 10.8003C23.7625 12.113 24.5 13.8935 24.5 15.75C24.5 17.6065 23.7625 19.387 22.4497 20.6997C21.137 22.0125 19.3565 22.75 17.5 22.75ZM17.5 19.25C18.4283 19.25 19.3185 18.8813 19.9749 18.2249C20.6313 17.5685 21 16.6783 21 15.75C21 14.8217 20.6313 13.9315 19.9749 13.2751C19.3185 12.6187 18.4283 12.25 17.5 12.25C16.5717 12.25 15.6815 12.6187 15.0251 13.2751C14.3687 13.9315 14 14.8217 14 15.75C14 16.6783 14.3687 17.5685 15.0251 18.2249C15.6815 18.8813 16.5717 19.25 17.5 19.25ZM28 14C28.4641 14 28.9093 13.8156 29.2374 13.4874C29.5656 13.1592 29.75 12.7141 29.75 12.25C29.75 11.7859 29.5656 11.3408 29.2374 11.0126C28.9093 10.6844 28.4641 10.5 28 10.5C27.5359 10.5 27.0908 10.6844 26.7626 11.0126C26.4344 11.3408 26.25 11.7859 26.25 12.25C26.25 12.7141 26.4344 13.1592 26.7626 13.4874C27.0908 13.8156 27.5359 14 28 14Z" fill="white"/>
</svg>
