<svg width="35" height="28" viewBox="0 0 35 28" fill="none" xmlns="http://www.w3.org/2000/svg">
<path d="M34.9459 1.14962C34.9292 0.86419 34.8083 0.594819 34.6061 0.392647C34.4039 0.190476 34.1345 0.0695786 33.849 0.0529101C26.2995 -0.384606 20.2377 1.9109 17.6326 6.21022C15.9115 9.05262 15.9145 12.5046 17.6093 15.7977C16.6446 16.9459 15.9396 18.2892 15.5425 19.7353L13.1694 17.3538C14.31 14.9722 14.2663 12.49 13.0236 10.4279C11.0983 7.25006 6.65399 5.54666 1.13622 5.87042C0.850753 5.88709 0.581348 6.00799 0.379151 6.21016C0.176954 6.41233 0.0560422 6.6817 0.0393716 6.96713C-0.28589 12.4842 1.41918 16.9279 4.5974 18.853C5.64621 19.4937 6.85141 19.8328 8.08047 19.833C9.27343 19.8183 10.4478 19.5357 11.5169 19.0061L15.1633 22.6521V26.8333C15.1633 27.1427 15.2862 27.4395 15.5051 27.6583C15.7239 27.8771 16.0207 28 16.3301 28C16.6396 28 16.9364 27.8771 17.1552 27.6583C17.3741 27.4395 17.497 27.1427 17.497 26.8333V22.5325C17.4918 20.6764 18.1235 18.8747 19.2867 17.4281C20.7875 18.2124 22.4519 18.6321 24.1452 18.6532C25.7822 18.6585 27.3889 18.2113 28.7878 17.3611C33.0877 14.7593 35.3893 8.69823 34.9459 1.14962ZM5.80073 16.8579C3.56328 15.5031 2.29724 12.2961 2.32787 8.16592C6.45854 8.13092 9.66594 9.40118 11.0209 11.6383C11.7284 12.8051 11.8436 14.1657 11.3798 15.5672L7.81939 12.0073C7.59878 11.7978 7.30502 11.6826 7.00075 11.6865C6.69648 11.6904 6.40577 11.813 6.1906 12.0282C5.97543 12.2433 5.85282 12.534 5.84893 12.8382C5.84503 13.1425 5.96015 13.4362 6.16974 13.6568L9.73011 17.2167C8.32843 17.6804 6.96904 17.5652 5.80073 16.8579ZM27.5786 15.3674C25.6242 16.5502 23.3269 16.6406 20.9932 15.6591L28.8243 7.82758C29.0339 7.607 29.149 7.31328 29.1451 7.00904C29.1412 6.70481 29.0186 6.41413 28.8034 6.19899C28.5882 5.98385 28.2975 5.86126 27.9933 5.85737C27.689 5.85347 27.3952 5.96858 27.1746 6.17814L19.3421 13.9995C18.3561 11.6661 18.4451 9.36763 19.6338 7.41485C21.6671 4.06056 26.4891 2.19091 32.6632 2.33529C32.8032 8.50719 30.9363 13.3345 27.5786 15.3674Z" fill="white"/>
</svg>
