<svg width="39" height="27" viewBox="0 0 39 27" fill="none" xmlns="http://www.w3.org/2000/svg">
<path d="M38.8177 9.79991L36.5479 4.17701C36.3553 3.70127 36.023 3.29378 35.594 3.00734C35.165 2.7209 34.6591 2.5687 34.1418 2.57047H28.5353V1.28523C28.5353 0.944369 28.3986 0.617465 28.1554 0.376437C27.9121 0.135408 27.5822 0 27.2382 0H2.59412C1.90611 0 1.24629 0.270816 0.759799 0.752873C0.273308 1.23493 0 1.88874 0 2.57047V20.5637C0 21.2455 0.273308 21.8993 0.759799 22.3813C1.24629 22.8634 1.90611 23.1342 2.59412 23.1342H5.35037C5.63611 24.2401 6.28516 25.2202 7.19519 25.9201C8.10522 26.6201 9.22446 27 10.3765 27C11.5285 27 12.6477 26.6201 13.5578 25.9201C14.4678 25.2202 15.1168 24.2401 15.4026 23.1342H23.5092C23.7949 24.2401 24.444 25.2202 25.354 25.9201C26.264 26.6201 27.3833 27 28.5353 27C29.6873 27 30.8065 26.6201 31.7166 25.9201C32.6266 25.2202 33.2756 24.2401 33.5614 23.1342H36.3176C37.0056 23.1342 37.6655 22.8634 38.152 22.3813C38.6385 21.8993 38.9118 21.2455 38.9118 20.5637V10.2819C38.9122 10.1167 38.8803 9.95302 38.8177 9.79991ZM28.5353 5.14094H34.1418L35.6983 8.99664H28.5353V5.14094ZM2.59412 2.57047H25.9412V12.8523H2.59412V2.57047ZM10.3765 24.4195C9.8634 24.4195 9.36186 24.2687 8.93526 23.9862C8.50865 23.7038 8.17616 23.3024 7.97982 22.8327C7.78347 22.363 7.7321 21.8461 7.8322 21.3475C7.93229 20.8489 8.17936 20.3909 8.54215 20.0314C8.90494 19.6719 9.36717 19.4271 9.87038 19.3279C10.3736 19.2287 10.8952 19.2796 11.3692 19.4742C11.8432 19.6687 12.2484 19.9982 12.5334 20.4209C12.8184 20.8436 12.9706 21.3406 12.9706 21.849C12.9706 22.5307 12.6973 23.1845 12.2108 23.6666C11.7243 24.1486 11.0645 24.4195 10.3765 24.4195ZM23.5092 20.5637H15.4026C15.1168 19.4579 14.4678 18.4778 13.5578 17.7778C12.6477 17.0779 11.5285 16.698 10.3765 16.698C9.22446 16.698 8.10522 17.0779 7.19519 17.7778C6.28516 18.4778 5.63611 19.4579 5.35037 20.5637H2.59412V15.4228H25.9412V17.4005C25.3447 17.7421 24.8227 18.1976 24.4052 18.7406C23.9877 19.2836 23.6832 19.9033 23.5092 20.5637ZM28.5353 24.4195C28.0222 24.4195 27.5207 24.2687 27.0941 23.9862C26.6675 23.7038 26.335 23.3024 26.1386 22.8327C25.9423 22.363 25.8909 21.8461 25.991 21.3475C26.0911 20.8489 26.3382 20.3909 26.701 20.0314C27.0638 19.6719 27.526 19.4271 28.0292 19.3279C28.5324 19.2287 29.054 19.2796 29.528 19.4742C30.002 19.6687 30.4072 19.9982 30.6922 20.4209C30.9773 20.8436 31.1294 21.3406 31.1294 21.849C31.1294 22.5307 30.8561 23.1845 30.3696 23.6666C29.8831 24.1486 29.2233 24.4195 28.5353 24.4195ZM36.3176 20.5637H33.5614C33.2722 19.4606 32.6219 18.4837 31.7124 17.7859C30.8029 17.0882 29.6855 16.7091 28.5353 16.708V11.5671H36.3176V20.5637Z" fill="white"/>
</svg>
