<svg width="37" height="37" viewBox="0 0 37 37" fill="none" xmlns="http://www.w3.org/2000/svg">
<path d="M4.33594 16.9024C4.33594 17.0297 4.30382 17.2685 4.23958 17.6186C4.17535 17.9688 4.14323 18.2075 4.14323 18.3348V32.5634C4.14323 33.7093 4.5447 34.6802 5.34766 35.476C6.15061 36.2718 7.09809 36.6696 8.1901 36.6696H24.6667C25.7587 36.6696 26.7222 36.2718 27.5573 35.476C28.3924 34.6802 28.8099 33.7093 28.8099 32.5634V31.7995L34.1094 34.4733C34.2378 34.6006 34.5269 34.6643 34.9766 34.6643C35.4905 34.6643 35.8116 34.6006 35.9401 34.4733C36.6467 33.964 37 33.3274 37 32.5634V18.3348C37 17.5072 36.6467 16.9024 35.9401 16.5204C35.2335 16.0748 34.559 16.0748 33.9167 16.5204L28.8099 19.1943V18.3348C28.8099 18.2075 28.7778 17.9688 28.7135 17.6186C28.6493 17.2685 28.6172 17.0297 28.6172 16.9024C31.4436 15.1199 32.8568 12.5415 32.8568 9.16741C32.8568 6.62091 31.9575 4.45638 30.1589 2.67383C28.3602 0.891276 26.1762 0 23.6068 0C20.7161 0 18.3394 1.14593 16.4766 3.43778C14.6137 1.14593 12.2049 0 9.25 0C6.68056 0 4.49653 0.891276 2.69792 2.67383C0.899306 4.45638 0 6.62091 0 9.16741C0 12.4779 1.44531 15.0562 4.33594 16.9024ZM32.8568 21.5816V29.3166L28.8099 27.3112V23.587L32.8568 21.5816ZM24.6667 18.3348V32.5634H8.1901V18.3348H24.6667ZM23.6068 4.10624C25.0842 4.10624 26.3207 4.59962 27.3164 5.58639C28.3121 6.57316 28.8099 7.76684 28.8099 9.16741C28.8099 10.568 28.3121 11.7617 27.3164 12.7484C26.3207 13.7352 25.0842 14.2286 23.6068 14.2286C22.1293 14.2286 20.9089 13.7352 19.9453 12.7484C18.9818 11.7617 18.5 10.568 18.5 9.16741C18.5 7.76684 18.9818 6.57316 19.9453 5.58639C20.9089 4.59962 22.1293 4.10624 23.6068 4.10624ZM9.25 4.10624C10.6632 4.10624 11.8676 4.59962 12.8633 5.58639C13.8589 6.57316 14.3568 7.76684 14.3568 9.16741C14.3568 10.568 13.8589 11.7617 12.8633 12.7484C11.8676 13.7352 10.6632 14.2286 9.25 14.2286C7.83681 14.2286 6.63238 13.7352 5.63672 12.7484C4.64106 11.7617 4.14323 10.568 4.14323 9.16741C4.14323 7.76684 4.64106 6.57316 5.63672 5.58639C6.63238 4.59962 7.83681 4.10624 9.25 4.10624ZM14.3568 24.4464C14.3568 25.0194 14.1641 25.4969 13.7786 25.8788C13.3932 26.2608 12.9115 26.4518 12.3333 26.4518C11.7552 26.4518 11.2734 26.2608 10.888 25.8788C10.5026 25.4969 10.3099 25.0194 10.3099 24.4464C10.3099 23.8735 10.5026 23.396 10.888 23.014C11.2734 22.632 11.7552 22.4411 12.3333 22.4411C12.9115 22.4411 13.3932 22.632 13.7786 23.014C14.1641 23.396 14.3568 23.8735 14.3568 24.4464ZM22.6432 24.4464C22.6432 25.0194 22.4345 25.4969 22.0169 25.8788C21.5994 26.2608 21.1016 26.4518 20.5234 26.4518C20.0095 26.4518 19.5438 26.2608 19.1263 25.8788C18.7088 25.4969 18.5 25.0194 18.5 24.4464C18.5 23.8735 18.7088 23.396 19.1263 23.014C19.5438 22.632 20.0095 22.4411 20.5234 22.4411C21.1016 22.4411 21.5994 22.632 22.0169 23.014C22.4345 23.396 22.6432 23.8735 22.6432 24.4464ZM24.6667 9.16741C24.6667 9.8677 24.3134 10.2178 23.6068 10.2178C22.9644 10.2178 22.6432 9.8677 22.6432 9.16741C22.6432 8.46712 22.9644 8.11698 23.6068 8.11698C24.3134 8.11698 24.6667 8.46712 24.6667 9.16741ZM10.3099 9.16741C10.3099 9.8677 9.9566 10.2178 9.25 10.2178C8.5434 10.2178 8.1901 9.8677 8.1901 9.16741C8.1901 8.46712 8.5434 8.11698 9.25 8.11698C9.9566 8.11698 10.3099 8.46712 10.3099 9.16741Z" fill="white"/>
</svg>
