<svg width="31" height="21" viewBox="0 0 31 21" fill="none" xmlns="http://www.w3.org/2000/svg">
<path d="M7.27002 12.9277L2.78474 14.761C1.93297 15.1086 1.00042 14.4832 1.00042 13.5629V5.43801C1.00042 4.5177 1.93297 3.89111 2.78474 4.23867L7.27002 6.07194" stroke="#777777" stroke-width="1.5" stroke-linecap="round" stroke-linejoin="round"/>
<path fill-rule="evenodd" clip-rule="evenodd" d="M21.2178 18H12.7822C9.84346 18 8 16.2585 8 13.7925V5.20747C8 2.74149 9.83539 1 12.7822 1H21.2178C24.166 1 26 2.74149 26 5.20747V13.7925C26 16.2585 24.166 18 21.2178 18Z" stroke="#777777" stroke-width="1.5" stroke-linecap="round" stroke-linejoin="round"/>
<circle cx="25" cy="15" r="5.25" fill="#222225" stroke="#777777" stroke-width="1.5"/>
<path d="M25.0005 12L25.0005 18" stroke="#777777" stroke-width="1.5" stroke-linecap="round"/>
<path d="M28 15H22" stroke="#777777" stroke-width="1.5" stroke-linecap="round"/>
</svg>
