<svg width="26" height="26" viewBox="0 0 26 26" fill="none" xmlns="http://www.w3.org/2000/svg">
<path d="M12.2834 19.5676L8.85558 17.8537M8.85558 17.8537L2 21.2815V6.42779L8.85558 3M8.85558 17.8537V3M8.85558 3L15.7112 6.42779M15.7112 6.42779L22.5667 3V11.5695M15.7112 6.42779V12.7121M19.7148 18.4296V18.441M22.1383 20.8531C22.6177 20.3737 22.9443 19.7629 23.0767 19.098C23.209 18.433 23.1412 17.7438 22.8818 17.1174C22.6224 16.491 22.183 15.9556 21.6193 15.5789C21.0556 15.2022 20.3928 15.0011 19.7148 15.0011C19.0368 15.0011 18.374 15.2022 17.8103 15.5789C17.2466 15.9556 16.8073 16.491 16.5478 17.1174C16.2884 17.7438 16.2206 18.433 16.353 19.098C16.4853 19.7629 16.8119 20.3737 17.2914 20.8531C17.769 21.3318 18.5768 22.0471 19.7148 23C20.9157 21.9831 21.7246 21.2678 22.1383 20.8531Z" stroke="white" stroke-width="1.8" stroke-linecap="round" stroke-linejoin="round"/>
</svg>
