<svg width="23" height="23" viewBox="0 0 23 23" fill="none" xmlns="http://www.w3.org/2000/svg">
<path d="M18.5 18.5L15 15M8 8L4.5 4.5M15 8L18.5 4.5M4.5 18.5L8 15M22 11.5C22 12.8789 21.7284 14.2443 21.2007 15.5182C20.6731 16.7921 19.8996 17.9496 18.9246 18.9246C17.9496 19.8996 16.7921 20.6731 15.5182 21.2007C14.2443 21.7284 12.8789 22 11.5 22C10.1211 22 8.75574 21.7284 7.48182 21.2007C6.20791 20.6731 5.05039 19.8996 4.07538 18.9246C3.10036 17.9496 2.32694 16.7921 1.79926 15.5182C1.27159 14.2443 1 12.8789 1 11.5C1 8.71523 2.10625 6.04451 4.07538 4.07538C6.04451 2.10625 8.71523 1 11.5 1C14.2848 1 16.9555 2.10625 18.9246 4.07538C20.8938 6.04451 22 8.71523 22 11.5ZM16.1667 11.5C16.1667 12.7377 15.675 13.9247 14.7998 14.7998C13.9247 15.675 12.7377 16.1667 11.5 16.1667C10.2623 16.1667 9.07534 15.675 8.20017 14.7998C7.325 13.9247 6.83333 12.7377 6.83333 11.5C6.83333 10.2623 7.325 9.07534 8.20017 8.20017C9.07534 7.325 10.2623 6.83333 11.5 6.83333C12.7377 6.83333 13.9247 7.325 14.7998 8.20017C15.675 9.07534 16.1667 10.2623 16.1667 11.5Z" stroke="white" stroke-width="2"/>
</svg>
