<svg width="17" height="21" viewBox="0 0 17 21" fill="none" xmlns="http://www.w3.org/2000/svg">
<path d="M15.1565 0H3.1723C2.33095 0 1.52407 0.368749 0.929145 1.02513C0.334224 1.6815 0 2.57174 0 3.5V19.8333C0 20.1428 0.111408 20.4395 0.309715 20.6583C0.508022 20.8771 0.776985 21 1.05743 21H13.7466C14.0271 21 14.296 20.8771 14.4944 20.6583C14.6927 20.4395 14.8041 20.1428 14.8041 19.8333C14.8041 19.5239 14.6927 19.2272 14.4944 19.0084C14.296 18.7896 14.0271 18.6667 13.7466 18.6667H2.11487V18.2778C2.11487 17.9684 2.22627 17.6716 2.42458 17.4528C2.62289 17.234 2.89185 17.1111 3.1723 17.1111H15.1565C15.437 17.1111 15.706 16.9882 15.9043 16.7694C16.1026 16.5506 16.214 16.2539 16.214 15.9444V1.16667C16.214 0.857247 16.1026 0.560501 15.9043 0.341709C15.706 0.122916 15.437 0 15.1565 0ZM14.0991 14.7778H3.1723C2.81201 14.777 2.4543 14.8448 2.11487 14.9781V3.5C2.11487 3.19058 2.22627 2.89383 2.42458 2.67504C2.62289 2.45625 2.89185 2.33333 3.1723 2.33333H14.0991V14.7778Z" fill="white"/>
</svg>
