<svg width="19" height="21" viewBox="0 0 19 21" fill="none" xmlns="http://www.w3.org/2000/svg">
<path d="M8.13738 0V11.7562H10.8626V0H8.13738ZM2.78204 2.97659C1.06288 4.81598 0 7.35752 0 10.1643C0 15.7779 4.25329 20.3287 9.5 20.3287C14.7467 20.3287 19 15.7779 19 10.1643C19 7.35752 17.9371 4.81598 16.218 2.97659L14.3045 5.02386C15.5341 6.33943 16.2945 8.15705 16.2945 10.1643C16.2945 14.1789 13.2522 17.434 9.5 17.434C5.7478 17.434 2.7055 14.1789 2.7055 10.1643C2.7055 8.15705 3.4659 6.33943 4.6955 5.02386L2.78204 2.97659Z" fill="#F27B67"/>
</svg>
