<svg width="24" height="26" viewBox="0 0 24 26" fill="none" xmlns="http://www.w3.org/2000/svg">
<path fill-rule="evenodd" clip-rule="evenodd" d="M12.7141 3.68144L15.0301 8.66624C15.1461 8.91767 15.3701 9.09314 15.6301 9.1338L20.8151 9.93518C21.0251 9.96513 21.2141 10.0828 21.3431 10.2626C21.5851 10.5996 21.5481 11.0768 21.2581 11.3667L17.5001 15.2549C17.3091 15.4475 17.2241 15.7299 17.2741 16.0049L18.1741 21.4915C18.2371 21.9462 17.9471 22.372 17.5221 22.4459C17.3461 22.4748 17.1661 22.4448 17.0061 22.3603L12.3881 19.77C12.1561 19.6352 11.8781 19.6352 11.6461 19.77L6.99413 22.3742C6.60513 22.586 6.12913 22.4288 5.91713 22.0211C5.83613 21.8563 5.80813 21.6691 5.83613 21.4861L6.73613 15.9995C6.78113 15.7256 6.69613 15.4442 6.51013 15.2506L2.73213 11.3635C2.42413 11.0361 2.42213 10.5033 2.72913 10.1738C2.73013 10.1727 2.73113 10.1706 2.73213 10.1695C2.85913 10.0464 3.01513 9.96406 3.18413 9.93197L8.37013 9.13059C8.62913 9.08672 8.85213 8.91339 8.97013 8.66196L11.2841 3.68144C11.3771 3.47922 11.5421 3.32408 11.7421 3.25346C11.9431 3.18178 12.1631 3.1989 12.3521 3.30054C12.5071 3.38292 12.6341 3.51667 12.7141 3.68144Z" stroke="white" stroke-width="2" stroke-linecap="round" stroke-linejoin="round"/>
</svg>
